<!-- Generator: Adobe Illustrator 25.0.0, SVG Export Plug-In  -->
<svg version="1.1" xmlns="http://www.w3.org/2000/svg" xmlns:xlink="http://www.w3.org/1999/xlink" x="0px" y="0px"
	 width="1679.301px" height="579.63px" viewBox="0 0 1679.301 579.63"
	 style="overflow:visible;enable-background:new 0 0 1679.301 579.63;" xml:space="preserve">
<style type="text/css">
	.st0{fill:none;}
	.st1{fill:#FFFFFF;}
	.st2{font-family:'IsabelCondensed-Bold';}
	.st3{font-size:268px;}
	.st4{letter-spacing:8.269;}
	.st5{font-size:177.863px;}
	.st6{letter-spacing:4.134;}
	.st7{font-size:118.5753px;}
	.st8{letter-spacing:2.481;}
</style>
<defs>
</defs>
<g>
	<rect y="26.936" class="st0" width="1652.616" height="231.966"/>
	<path class="st1" d="M338.399,125.556c41.409,0.215,56.811,24.008,56.811,46.354c0,34.698-28.013,52.76-62.353,52.76
		c-35.873,0-50.743-21.098-50.743-43.468c0-15.245,11.743-22.092,22.143-22.092c9.746,0,18.358,5.306,18.358,15.19
		c0,14.974-18.993,13.946-18.993,25.117c0,8.335,7.967,16.608,20.669,16.608c15.742,0,25.105-11.524,25.105-44.116
		c0-31.745-9.302-38.842-20.996-38.842h-1.131c-3.018,0-4.943-1.678-4.943-4.146c0-2.391,1.579-3.803,4.981-6.4
		c9.996-7.509,21.845-16.469,32.285-26.8c5.902-5.926,11.233-12.168,15.515-18.954c-5.86,4.361-12.417,6.559-21.641,6.559
		c-13.386,0-29.257-6.107-42.144-6.107c-10.602,0-18.089,7.005-18.089,18.483c0,2.356-2.249,3.862-5.325,3.862
		c-2.81,0-5.059-1.699-5.059-4.055V84.744c0-31.478,14.948-41.171,35.727-41.171c23.07,0,37.782,11.524,51.184,11.524
		c15.249,0,9.869-12.264,18.915-12.264c2.81,0,5.062,1.702,5.062,4.133v3.594c0,32.536-33.759,58.016-55.335,74.996H338.399z"/>
	<path class="st1" d="M429.618,133.569c0-58.881,23.284-90.578,63.552-90.578c40.248,0,63.513,31.697,63.513,90.578
		c0,59.015-23.265,91.436-63.513,91.436C452.902,225.005,429.618,192.584,429.618,133.569z M507.628,133.566
		c0-68.087-3.348-82.897-14.458-82.897c-11.244,0-14.572,14.81-14.572,82.897c0,68.261,3.329,83.757,14.572,83.757
		C504.28,217.323,507.628,201.827,507.628,133.566z"/>
	<path class="st1" d="M870.589,45.682c2.833,0,4.907,1.715,4.907,4.058c0,2.133-2.074,3.865-4.907,3.865h-4.981
		c-4.748,0-9.37,2.401-11.366,9.38l-46.024,160.509h-15.091L759.484,113.49l-34.845,110.003h-15.256L661.08,62.912
		c-2.139-7.107-7.257-9.305-10.138-9.305h-3.86c-2.833,0-4.907-1.723-4.907-4.058c0-2.146,2.074-3.862,4.907-3.862h74.756
		c2.833,0,4.907,1.715,4.907,4.058c0,2.141-2.074,3.865-4.907,3.865h-6.077c-5.847,0-9,3.926-7.387,9.38l27.174,92.599
		l34.92-109.899h12.977l34.531,105.559l25.206-88.259c1.56-5.436-1.438-9.38-7.616-9.38h-5.325c-2.833,0-4.907-1.724-4.907-4.058
		c0-2.147,2.074-3.862,4.907-3.862h40.346L870.589,45.682z"/>
	<path class="st1" d="M1051.616,218.443c0,2.147-2.495,3.862-5.234,3.862h-72.286c-2.717,0-5.234-1.715-5.234-3.862
		c0-2.334,2.518-4.058,5.234-4.058h5.23c5.072,0,8.042-4.079,6.239-9.38l-12.316-36.468h-45.437l-12.884,36.468
		c-1.818,5.17,0.946,9.38,6.113,9.38h4.482c2.716,0,5.237,1.724,5.237,4.058c0,2.147-2.521,3.862-5.237,3.862h-33.747
		c-2.716,0-5.237-1.715-5.237-3.862c0-2.334,2.521-4.058,5.237-4.058h1.229c5.898,0,8.748-3.483,10.848-9.38l57.18-160.701h15.279
		l57.342,160.969c1.844,5.251,5.237,9.112,11.661,9.112h1.066C1049.121,214.386,1051.616,216.109,1051.616,218.443z M970.64,160.812
		l-19.596-58.033l-20.504,58.033H970.64z"/>
	<path class="st1" d="M1215.432,92.546c0,2.317-2.058,4.055-4.673,4.055c-2.85,0-4.907-1.737-4.907-4.055v-2.318
		c0-24.593-10.582-36.615-29.624-36.615h-1.806c-6.326,0-10.329,4.039-10.329,8.346v144.085c0,4.307,4.003,8.346,10.329,8.346h3.533
		c2.849,0,4.903,1.699,4.903,3.862c0,2.355-2.055,4.055-4.903,4.055h-73.253c-2.849,0-4.903-1.699-4.903-4.055
		c0-2.163,2.055-3.862,4.903-3.862h3.533c6.326,0,10.326-4.039,10.326-8.346V61.958c0-4.307-4-8.346-10.326-8.346h-2.479
		c-19.946,0-29.248,13.347-29.442,35.87v2.964c0,2.321-2.058,4.058-4.674,4.058c-2.849,0-4.907-1.736-4.907-4.058v-2.235V45.69
		h148.699v37.146V92.546z"/>
	<path class="st1" d="M1382.347,92.546c0,2.317-2.058,4.055-4.673,4.055c-2.85,0-4.907-1.737-4.907-4.055v-2.318
		c0-24.593-10.582-36.615-29.624-36.615h-1.806c-6.326,0-10.329,4.039-10.329,8.346v144.085c0,4.307,4.003,8.346,10.329,8.346h3.533
		c2.849,0,4.903,1.699,4.903,3.862c0,2.355-2.055,4.055-4.903,4.055h-73.253c-2.849,0-4.903-1.699-4.903-4.055
		c0-2.163,2.055-3.862,4.903-3.862h3.533c6.326,0,10.326-4.039,10.326-8.346V61.958c0-4.307-4-8.346-10.326-8.346h-2.479
		c-19.946,0-29.248,13.347-29.442,35.87v2.964c0,2.321-2.058,4.058-4.674,4.058c-2.849,0-4.907-1.736-4.907-4.058v-2.235V45.69
		h148.699v37.146V92.546z"/>
</g>
<g>
	<rect x="9.754" y="255.555" class="st0" width="1652.616" height="231.966"/>
	<path class="st1" d="M351.647,386.971c-36.096,0-52.823-25.606-52.823-60.276c0-39.752,20.321-60.581,52.984-60.581
		c26.895,0,38.854,13.275,38.854,29.56c0,10.652-7.37,15.038-14.384,15.038c-6.588,0-12.755-3.698-12.755-10.086
		c0-9.546,13.225-8.907,13.225-16.409c0-6.691-7.757-12.231-19.925-12.231c-16.154,0-27.236,12.144-27.236,54.712
		c0,38.438,9.224,51.97,26.376,51.97c14.399,0,21.99-7.479,26.025-15.541c1.908-3.227,3.119-4.153,5.203-4.153
		c1.435,0,2.47,0.756,2.422,2.278c-0.155,2.252-1.205,5.242-3.289,8.589c-4.967,8.116-15.094,17.137-34.675,17.137L351.647,386.971z
		"/>
	<path class="st1" d="M519.194,326.326c0,36.315-19.078,60.552-51.993,60.552c-32.928,0-52.01-24.236-52.01-60.552
		c0-36.314,19.082-60.109,52.01-60.109C500.117,266.217,519.194,290.012,519.194,326.326z M488.368,326.326
		c0-37.723-4.769-54.755-21.166-54.755c-16.413,0-21.188,17.032-21.188,54.755c0,37.724,4.775,55.196,21.188,55.196
		C483.599,381.522,488.368,364.05,488.368,326.326z"/>
	<path class="st1" d="M685.306,268.002c1.88,0,3.257,1.139,3.257,2.693c0,1.415-1.377,2.564-3.257,2.564H682
		c-3.151,0-6.219,1.594-7.543,6.225l-30.545,106.519h-10.015l-22.328-73.001l-23.126,73.001h-10.125l-32.057-106.566
		c-1.419-4.717-4.816-6.175-6.729-6.175h-2.562c-1.88,0-3.257-1.144-3.257-2.693c0-1.425,1.376-2.562,3.257-2.562h49.613
		c1.88,0,3.257,1.138,3.257,2.692c0,1.421-1.377,2.564-3.257,2.564h-4.033c-3.88,0-5.973,2.606-4.902,6.226l18.035,61.451
		l23.175-72.932h8.613l22.917,70.052l16.729-58.571c1.035-3.607-0.955-6.226-5.055-6.226h-3.534c-1.88,0-3.256-1.144-3.256-2.692
		c0-1.425,1.376-2.562,3.256-2.562h26.776L685.306,268.002z"/>
	<path class="st1" d="M807.213,326.326c0,36.315-19.078,60.552-51.993,60.552c-32.928,0-52.01-24.236-52.01-60.552
		c0-36.314,19.082-60.109,52.01-60.109C788.135,266.217,807.213,290.012,807.213,326.326z M776.387,326.326
		c0-37.723-4.769-54.755-21.166-54.755c-16.413,0-21.188,17.032-21.188,54.755c0,37.724,4.775,55.196,21.188,55.196
		C771.618,381.522,776.387,364.05,776.387,326.326z"/>
	<path class="st1" d="M934.746,376.955c1.532,0,2.448,0.985,2.448,2.163c0,3.857-7.646,7.708-18.148,7.708
		c-46.639,0-12.824-55.939-47.939-55.695h-1.803v43.29c0,2.858,2.654,5.538,6.853,5.538h2.345c1.891,0,3.257,1.128,3.257,2.563
		c0,1.563-1.366,2.69-3.257,2.69h-48.615c-1.891,0-3.255-1.127-3.255-2.69c0-1.436,1.364-2.563,3.255-2.563h2.345
		c4.199,0,6.854-2.68,6.854-5.538v-95.619c0-2.858-2.654-5.539-6.854-5.539h-2.345c-1.891,0-3.255-1.129-3.255-2.564
		c0-1.563,1.364-2.69,3.255-2.69h48.74c27.895,0,45.963,10.646,45.963,29.499c0,15.427-9.072,26.431-30.719,30.281
		c40.332,7.963,20.878,51.679,34.516,51.679c3.523,0,4.135-2.525,6.363-2.525L934.746,376.955z M873.977,325.825
		c15.106,0,19.697-10.995,19.697-28.305c0-17.298-6.927-24.243-17.036-24.243h-0.482c-4.198,0-6.853,2.681-6.853,5.538v47.01
		H873.977z"/>
	<path class="st1" d="M1002.85,382.522c0,1.563-1.365,2.69-3.257,2.69h-48.615c-1.891,0-3.254-1.127-3.254-2.69
		c0-1.436,1.363-2.563,3.254-2.563h2.345c4.199,0,6.855-2.68,6.855-5.538v-95.619c0-2.858-2.656-5.539-6.855-5.539h-2.345
		c-1.891,0-3.254-1.129-3.254-2.564c0-1.563,1.363-2.69,3.254-2.69h48.615c1.892,0,3.257,1.127,3.257,2.69
		c0,1.436-1.365,2.564-3.257,2.564h-2.344c-4.199,0-6.855,2.681-6.855,5.539v95.619c0,2.858,2.656,5.538,6.855,5.538h2.344
		C1001.485,379.959,1002.85,381.087,1002.85,382.522z M1062.991,379.959c1.863,0,3.257,1.128,3.257,2.691
		c0,1.436-1.394,2.562-3.257,2.562h-48.583c-1.86,0-3.254-1.127-3.254-2.69c0-1.436,1.394-2.563,3.256-2.563h4.225
		c3.577,0,4.543-2.71,2.812-5.766l-27.348-47.175l44.668-48.475c2.189-2.341,0.953-5.281-2.708-5.281h-3.491
		c-1.863,0-3.257-1.129-3.257-2.692c0-1.436,1.394-2.562,3.257-2.562h27.873c1.863,0,3.257,1.127,3.257,2.69
		c0,1.436-1.394,2.564-3.257,2.564h-2.048c-3.756,0-6.737,0.955-10.757,5.281l-30.566,33.131l37.643,64.193
		c1.644,2.793,3.595,4.091,6.757,4.091h1.525H1062.991z"/>
	<path class="st1" d="M1134.061,382.522c0,1.563-1.365,2.69-3.257,2.69h-48.615c-1.891,0-3.254-1.127-3.254-2.69
		c0-1.436,1.363-2.563,3.254-2.563h2.345c4.199,0,6.855-2.68,6.855-5.538v-95.619c0-2.858-2.656-5.539-6.855-5.539h-2.345
		c-1.891,0-3.254-1.129-3.254-2.564c0-1.563,1.363-2.69,3.254-2.69h48.615c1.892,0,3.257,1.127,3.257,2.69
		c0,1.436-1.365,2.564-3.257,2.564h-2.344c-4.199,0-6.855,2.681-6.855,5.539v95.619c0,2.858,2.656,5.538,6.855,5.538h2.344
		C1132.696,379.959,1134.061,381.087,1134.061,382.522z"/>
	<path class="st1" d="M1251,268.011c1.938,0,3.304,1.128,3.304,2.563c0,1.563-1.365,2.692-3.304,2.692h-1.896
		c-4.656,0-6.788,2.681-6.788,5.538v42.919v63.495h-14.5l-58.271-86.935v29.694v6.453v40.022c0,2.846,2.599,5.507,6.77,5.507h1.895
		c1.938,0,3.302,1.128,3.302,2.691c0,1.435-1.363,2.562-3.302,2.562h-24.979c-1.938,0-3.302-1.128-3.302-2.562
		c0-1.563,1.363-2.691,3.302-2.691h1.895c4.638,0,6.771-2.657,6.771-5.503v-95.656c0-2.858-2.603-5.539-6.788-5.539h-1.896
		c-1.938,0-3.302-1.129-3.302-2.692c0-1.436,1.363-2.562,3.302-2.562h27.471l53.982,80.56v-20.592v-49.174
		c0-2.858-2.603-5.539-6.789-5.539h-1.895c-1.938,0-3.304-1.129-3.304-2.692c0-1.436,1.365-2.562,3.304-2.562h24.979L1251,268.011z"
		/>
	<path class="st1" d="M1369.394,375.929c-7.632,4.649-24.661,10.952-42.055,10.952c-35.26,0-53.689-22.895-53.689-60.177
		c0-38.843,22.846-60.484,56.476-60.484c24.743,0,38.306,13.275,38.306,29.56c0,10.652-7.37,15.038-14.385,15.038
		c-6.588,0-12.755-3.697-12.755-10.086c0-9.546,12.772-9.053,12.772-16.555c0-6.845-8.907-12.086-20.482-12.086
		c-15.482,0-29.168,11.623-29.168,54.613c0,43.146,12.395,53.435,26.54,53.435c4.085,0,8.625-0.946,11.145-1.884v-35.687
		c0-2.858-2.584-5.538-6.662-5.538h-5.689c-1.934,0-3.341-1.13-3.341-2.565c0-1.562,1.407-2.692,3.341-2.692h39.652v44.153
		L1369.394,375.929z"/>
</g>
<g>
	<rect x="26.685" y="435.443" class="st0" width="1652.616" height="112.412"/>
	<path class="st1" d="M481.709,500.098c0,14.196-12.872,21.785-32.74,21.785h-34.524c-1.26,0-2.169-0.752-2.169-1.794
		c0-0.957,0.909-1.709,2.169-1.709h1.563c2.779,0,4.544-1.762,4.569-3.652v-63.828c-0.024-1.89-1.79-3.652-4.569-3.652h-1.563
		c-1.26,0-2.169-0.753-2.169-1.71c0-1.042,0.909-1.794,2.169-1.794h34.725c16.218,0,29.086,4.874,29.086,18.039
		c0,10.031-6.879,17.507-22.135,19.573C471.037,482.671,481.709,488.009,481.709,500.098z M445.291,447.247
		c-2.779,0-4.544,1.763-4.569,3.652v29.144h2.873c9.35,0,14.194-5.211,14.194-17.935c0-9.393-4.076-14.862-11.702-14.862
		L445.291,447.247z M461.197,500.357c0-10.369-7.113-16.638-16.391-16.638h-4.084v31.009c0.024,1.891,1.79,3.652,4.569,3.652h1.321
		C455.086,518.381,461.197,511.332,461.197,500.357z"/>
	<path class="st1" d="M565.66,516.377c1.021,0,1.632,0.657,1.632,1.442c0,2.571-5.098,5.139-12.099,5.139
		c-31.093,0-8.55-37.295-31.96-37.132h-1.202v28.861c0,1.905,1.77,3.692,4.569,3.692h1.563c1.261,0,2.171,0.752,2.171,1.709
		c0,1.042-0.911,1.794-2.171,1.794h-32.41c-1.26,0-2.169-0.752-2.169-1.794c0-0.957,0.909-1.709,2.169-1.709h1.563
		c2.799,0,4.569-1.787,4.569-3.692v-63.749c0-1.905-1.77-3.692-4.569-3.692h-1.563c-1.26,0-2.169-0.753-2.169-1.71
		c0-1.042,0.909-1.794,2.169-1.794h32.494c18.596,0,30.642,7.098,30.642,19.667c0,10.285-6.049,17.622-20.479,20.188
		c26.888,5.309,13.919,34.454,23.01,34.454c2.349,0,2.756-1.685,4.242-1.685L565.66,516.377z M525.147,482.289
		c10.071,0,13.131-7.33,13.131-18.87c0-11.533-4.618-16.163-11.357-16.163H526.6c-2.799,0-4.569,1.787-4.569,3.692v31.341H525.147z"
		/>
	<path class="st1" d="M644.084,520.175c0,0.95-1.104,1.709-2.316,1.709h-31.983c-1.202,0-2.316-0.759-2.316-1.709
		c0-1.032,1.114-1.795,2.316-1.795h2.314c2.245,0,3.558-1.805,2.761-4.15l-5.449-16.135h-20.104l-5.7,16.135
		c-0.805,2.287,0.418,4.15,2.705,4.15h1.983c1.202,0,2.317,0.763,2.317,1.795c0,0.95-1.116,1.709-2.317,1.709h-14.931
		c-1.202,0-2.317-0.759-2.317-1.709c0-1.032,1.115-1.795,2.317-1.795h0.543c2.61,0,3.87-1.542,4.799-4.15l25.299-71.101h6.76
		l25.371,71.22c0.816,2.322,2.317,4.031,5.16,4.031h0.472C642.98,518.38,644.084,519.143,644.084,520.175z M608.256,494.677
		L599.586,469l-9.071,25.677H608.256z"/>
	<path class="st1" d="M718.706,443.744c1.292,0,2.203,0.752,2.203,1.709c0,1.042-0.911,1.795-2.203,1.795h-1.263
		c-3.104,0-4.526,1.787-4.526,3.693v28.613v42.331h-9.667l-38.848-57.958v19.797v4.302v26.684c0,1.897,1.732,3.671,4.513,3.671
		h1.264c1.292,0,2.201,0.752,2.201,1.794c0,0.957-0.909,1.709-2.201,1.709h-16.653c-1.292,0-2.202-0.752-2.202-1.709
		c0-1.042,0.909-1.794,2.202-1.794h1.263c3.092,0,4.514-1.771,4.514-3.669v-63.773c0-1.905-1.735-3.692-4.526-3.692h-1.263
		c-1.292,0-2.201-0.753-2.201-1.795c0-0.957,0.909-1.709,2.201-1.709h18.314l35.988,53.709v-13.729v-32.784
		c0-1.905-1.735-3.692-4.526-3.692h-1.263c-1.292,0-2.203-0.753-2.203-1.795c0-0.957,0.91-1.709,2.203-1.709h16.653L718.706,443.744
		z"/>
	<path class="st1" d="M765.086,443.741c22.362,0,41.165,11.087,41.165,38.537c0,26.291-18.306,39.604-41.165,39.604h-31.583
		c-1.26,0-2.171-0.752-2.171-1.794c0-0.957,0.911-1.709,2.171-1.709h1.563c2.799,0,4.57-1.787,4.57-3.692v-63.749
		c0-1.905-1.771-3.692-4.57-3.692h-1.563c-1.26,0-2.171-0.753-2.171-1.71c0-1.042,0.911-1.794,2.171-1.794L765.086,443.741
		L765.086,443.741z M765.086,518.38c12.629,0,20.654-11.479,20.654-36.101c0-24.146-7.719-35.033-20.653-35.033h-0.836
		c-2.269,0-4.466,1.428-4.466,3.692v63.749c0,2.088,1.926,3.691,4.464,3.691L765.086,518.38L765.086,518.38z"/>
	<path class="st1" d="M878.886,499.666c1.157,0,2.068,0.769,2.068,1.794v20.42h-59.538c-1.261,0-2.171-0.751-2.171-1.794
		c0-0.957,0.91-1.708,2.171-1.708h1.563c2.799,0,4.568-1.787,4.568-3.693v-63.748c0-1.906-1.77-3.692-4.568-3.692h-1.563
		c-1.261,0-2.171-0.753-2.171-1.71c0-1.043,0.91-1.794,2.171-1.794h59.479v19.697v0.989c0,1.026-0.91,1.795-2.171,1.795
		c-1.157,0-2.067-0.769-2.067-1.795v-1.312c-0.086-9.965-4.202-15.87-13.027-15.87h-11.365c-2.8,0-4.57,1.787-4.57,3.692v28.531
		h5.94c7.536,0,10.192-3.267,10.192-8.954v-2.249c0-0.956,1.014-1.795,2.171-1.795s2.171,0.839,2.171,1.795v25.912
		c0,0.956-1.014,1.795-2.171,1.795s-2.171-0.753-2.171-2.054v-2.281c0-5.226-2.448-8.665-10.192-8.665h-5.94v31.714
		c0,1.905,1.771,3.692,4.57,3.692h9.412c11.182,0,15.039-5.395,15.039-15.553v-1.363c0-1.026,0.909-1.794,2.17-1.794
		L878.886,499.666z"/>
	<path class="st1" d="M962.773,443.744c1.292,0,2.202,0.752,2.202,1.709c0,1.042-0.91,1.795-2.202,1.795h-1.264
		c-3.104,0-4.525,1.787-4.525,3.693v28.613v42.331h-9.667l-38.848-57.958v19.797v4.302v26.684c0,1.897,1.732,3.671,4.513,3.671
		h1.264c1.292,0,2.201,0.752,2.201,1.794c0,0.957-0.909,1.709-2.201,1.709h-16.653c-1.292,0-2.201-0.752-2.201-1.709
		c0-1.042,0.909-1.794,2.201-1.794h1.263c3.092,0,4.515-1.771,4.515-3.669v-63.773c0-1.905-1.735-3.692-4.525-3.692h-1.264
		c-1.292,0-2.201-0.753-2.201-1.795c0-0.957,0.909-1.709,2.201-1.709h18.313l35.988,53.709v-13.729v-32.784
		c0-1.905-1.734-3.692-4.525-3.692h-1.264c-1.292,0-2.202-0.753-2.202-1.795c0-0.957,0.91-1.709,2.202-1.709h16.653L962.773,443.744
		z"/>
	<path class="st1" d="M1044.841,500.098c0,14.196-12.872,21.785-32.74,21.785h-34.524c-1.261,0-2.17-0.752-2.17-1.794
		c0-0.957,0.909-1.709,2.17-1.709h1.563c2.778,0,4.544-1.762,4.568-3.652v-63.828c-0.024-1.89-1.79-3.652-4.568-3.652h-1.563
		c-1.261,0-2.17-0.753-2.17-1.71c0-1.042,0.909-1.794,2.17-1.794h34.725c16.218,0,29.087,4.874,29.087,18.039
		c0,10.031-6.88,17.507-22.136,19.573C1034.169,482.671,1044.841,488.009,1044.841,500.098z M1008.422,447.247
		c-2.779,0-4.544,1.763-4.568,3.652v29.144h2.872c9.35,0,14.194-5.211,14.194-17.935c0-9.393-4.076-14.862-11.702-14.862
		L1008.422,447.247z M1024.329,500.357c0-10.369-7.112-16.638-16.391-16.638h-4.084v31.009c0.024,1.891,1.789,3.652,4.568,3.652
		h1.321C1018.218,518.381,1024.329,511.332,1024.329,500.357z"/>
	<path class="st1" d="M1128.841,443.74c1.292,0,2.201,0.751,2.201,1.708c0,1.043-0.909,1.796-2.201,1.796h-1.263
		c-2.791,0-4.526,1.786-4.526,3.692v32.783v15.232c0,14.525-9.078,24.028-27.38,24.028c-17.821,0-30.966-6.494-30.966-24.354
		v-18.241v-29.447c0-1.905-1.771-3.692-4.57-3.692h-1.251c-1.26,0-2.171-0.753-2.171-1.71c0-1.042,0.911-1.794,2.171-1.794h31.785
		c1.261,0,2.172,0.752,2.172,1.794c0,0.957-0.911,1.71-2.172,1.71h-1.25c-2.799,0-4.57,1.787-4.57,3.692v11.175v36.867
		c0,13.12,6.33,18.565,16.527,18.565c10.516,0,16.607-6.532,16.607-18.565v-48.041c0-1.905-1.421-3.692-4.526-3.692h-1.263
		c-1.292,0-2.203-0.753-2.203-1.795c0-0.957,0.911-1.709,2.203-1.709h16.653L1128.841,443.74z"/>
	<path class="st1" d="M1213.683,516.377c1.021,0,1.632,0.657,1.632,1.442c0,2.571-5.098,5.139-12.099,5.139
		c-31.093,0-8.55-37.295-31.96-37.132h-1.202v28.861c0,1.905,1.77,3.692,4.569,3.692h1.562c1.261,0,2.171,0.752,2.171,1.709
		c0,1.042-0.91,1.794-2.171,1.794h-32.41c-1.261,0-2.17-0.752-2.17-1.794c0-0.957,0.909-1.709,2.17-1.709h1.563
		c2.799,0,4.568-1.787,4.568-3.692v-63.749c0-1.905-1.77-3.692-4.568-3.692h-1.563c-1.261,0-2.17-0.753-2.17-1.71
		c0-1.042,0.909-1.794,2.17-1.794h32.493c18.597,0,30.643,7.098,30.643,19.667c0,10.285-6.049,17.622-20.479,20.188
		c26.888,5.309,13.919,34.454,23.011,34.454c2.349,0,2.756-1.685,4.241-1.685L1213.683,516.377z M1173.171,482.289
		c10.071,0,13.132-7.33,13.132-18.87c0-11.533-4.618-16.163-11.357-16.163h-0.321c-2.8,0-4.569,1.787-4.569,3.692v31.341H1173.171z"
		/>
	<path class="st1" d="M1288.637,515.693c-5.088,3.1-16.441,7.302-28.037,7.302c-23.506,0-35.793-15.265-35.793-40.12
		c0-25.896,15.23-40.324,37.65-40.324c16.495,0,25.537,8.851,25.537,19.707c0,7.102-4.913,10.025-9.59,10.025
		c-4.393,0-8.504-2.465-8.504-6.725c0-6.363,8.516-6.035,8.516-11.037c0-4.562-5.938-8.057-13.654-8.057
		c-10.322,0-19.445,7.749-19.445,36.41c0,28.765,8.263,35.625,17.692,35.625c2.724,0,5.751-0.631,7.43-1.256v-23.793
		c0-1.905-1.722-3.692-4.441-3.692h-3.793c-1.289,0-2.227-0.753-2.227-1.71c0-1.042,0.938-1.795,2.227-1.795h26.436v29.437
		L1288.637,515.693z"/>
</g>
</svg>