<!-- Generator: Adobe Illustrator 25.0.0, SVG Export Plug-In  -->
<svg version="1.1" xmlns="http://www.w3.org/2000/svg" xmlns:xlink="http://www.w3.org/1999/xlink" x="0px" y="0px"
	 width="804.935px" height="95.026px" viewBox="0 0 804.935 95.026"
	 style="overflow:visible;enable-background:new 0 0 804.935 95.026;" xml:space="preserve">
<style type="text/css">
	.st0{fill:none;}
	.st1{fill:#FFFFFF;}
</style>
<defs>
</defs>
<g>
	<rect y="3.82" class="st0" width="804.935" height="88.039"/>
	<path class="st1" d="M21.744,13.125c0,0.328-0.292,0.574-0.663,0.574c-0.404,0-0.696-0.246-0.696-0.574v-0.329
		c0-3.486-1.5-5.19-4.201-5.19h-0.256c-0.897,0-1.465,0.572-1.465,1.183v20.427c0,0.61,0.568,1.184,1.465,1.184h0.501
		c0.404,0,0.695,0.24,0.695,0.547c0,0.334-0.292,0.575-0.695,0.575H6.042c-0.404,0-0.695-0.241-0.695-0.575
		c0-0.307,0.291-0.547,0.695-0.547h0.501c0.897,0,1.464-0.573,1.464-1.184V8.788c0-0.61-0.567-1.183-1.464-1.183H6.192
		c-2.829,0-4.147,1.892-4.175,5.085v0.42c0,0.329-0.292,0.575-0.663,0.575c-0.404,0-0.696-0.246-0.696-0.575v-0.316V6.482h21.086
		v5.266V13.125z"/>
	<path class="st1" d="M37.07,14.058c3.129,0,4.723,1.909,4.723,4.46c0,1.89-1.437,3.765-3.849,3.765
		c-1.573,0-2.671-1.014-2.671-2.245c0-1.894,2.401-2.014,2.401-3.19c0-0.656-0.601-1.167-1.742-1.167
		c-2.219,0-3.698,2.351-3.698,7.021v2.513v4.249c0,0.566,0.438,0.936,1.091,0.936h1.431c0.398,0,0.696,0.24,0.696,0.574
		c0,0.307-0.298,0.548-0.696,0.548h-9.518c-0.414,0-0.713-0.241-0.713-0.575c0-0.307,0.299-0.547,0.713-0.547h0.251
		c0.652,0,1.09-0.369,1.09-0.936v-4.249v-8.771c0-0.566-0.438-0.936-1.091-0.936h-0.251c-0.413,0-0.714-0.241-0.714-0.548
		c0-0.334,0.301-0.575,0.714-0.575h6.332v4.011C32.567,15.158,34.636,14.058,37.07,14.058L37.07,14.058z"/>
	<path class="st1" d="M64.214,30.398c0.413,0,0.713,0.24,0.713,0.547c0,0.334-0.3,0.575-0.713,0.575h-1.343v0.005h-5.653V28.63
		c-0.726,1.969-2.371,3.245-5.069,3.245c-3.492,0-6.893-2.411-6.893-8.925c0-6.494,3.374-8.908,6.856-8.908
		c2.677,0,4.377,1.23,5.106,3.272v-2.924h5.653v6.302v8.77c0,0.567,0.438,0.936,1.091,0.936L64.214,30.398L64.214,30.398z
		 M57.225,22.94c0-3.299-1.069-7.344-3.489-7.344c-1.656,0-2.609,1.807-2.609,7.354c0,5.493,0.953,7.372,2.609,7.372
		C56.156,30.322,57.225,26.217,57.225,22.94z"/>
	<path class="st1" d="M85.8,31.525v2.828c0,5.384-4.06,7.818-9.649,7.818c-4.838,0-7.602-2.078-7.602-5.4
		c0-1.993,1.321-3.047,2.858-3.047c1.293,0,2.37,0.689,2.37,2c0,1.755-2.126,1.634-2.126,2.916c0,1.123,1.184,2.397,4.075,2.397
		c3.451,0,4.42-2.281,4.42-5.963v-6.44c-0.727,1.966-2.371,3.24-5.068,3.24c-3.492,0-6.893-2.411-6.893-8.925
		c0-6.494,3.374-8.908,6.856-8.908c2.677,0,4.376,1.23,5.105,3.272v-2.924H85.8L85.8,31.525z M80.154,22.938
		c0-3.299-1.068-7.344-3.489-7.344c-1.656,0-2.609,1.807-2.609,7.354c0,5.492,0.954,7.371,2.609,7.371
		C79.086,30.32,80.154,26.216,80.154,22.938z"/>
	<path class="st1" d="M107.297,21.917c0,0.656-0.327,1.013-1.125,1.013h-9.737c0,5.086,0.729,7.551,4.073,7.551
		c2.879,0,4.523-2.359,5.224-4.231c0.168-0.428,0.437-0.512,0.704-0.512c0.438,0,0.56,0.277,0.554,0.536
		c-0.063,1.434-1.785,5.603-7.414,5.603c-5.315,0-8.961-3.363-8.961-8.952c0-5.483,3.391-8.887,8.669-8.887
		C104.564,14.037,107.296,16.962,107.297,21.917L107.297,21.917z M101.827,21.89c-0.011-5.146-0.625-6.802-2.553-6.802
		c-1.91,0-2.735,1.849-2.831,6.802H101.827z"/>
	<path class="st1" d="M130.584,6.481c7.167,0,13.193,3.553,13.193,12.349c0,8.424-5.867,12.69-13.193,12.69h-10.123
		c-0.404,0-0.696-0.241-0.696-0.575c0-0.307,0.292-0.548,0.696-0.548h0.501c0.897,0,1.465-0.572,1.465-1.183V8.788
		c0-0.61-0.567-1.184-1.465-1.184h-0.501c-0.404,0-0.696-0.241-0.696-0.548c0-0.334,0.292-0.574,0.696-0.574L130.584,6.481
		L130.584,6.481z M137.203,18.83c0-7.737-2.474-11.226-6.619-11.226h-0.268c-0.727,0-1.431,0.458-1.431,1.184v20.427
		c0,0.669,0.617,1.183,1.431,1.183h0.268C134.631,30.397,137.203,26.72,137.203,18.83z"/>
	<path class="st1" d="M157.014,30.398c0.413,0,0.714,0.24,0.714,0.547c0,0.334-0.301,0.575-0.714,0.575h-8.338
		c-0.414,0-0.713-0.241-0.713-0.575c0-0.307,0.299-0.547,0.713-0.547h0.251c0.652,0,1.091-0.369,1.091-0.936v-4.249v-8.771
		c0-0.566-0.438-0.936-1.091-0.936h-0.251c-0.413,0-0.714-0.241-0.714-0.548c0-0.334,0.301-0.575,0.714-0.575h6.997v10.829v4.248
		c0,0.567,0.438,0.936,1.091,0.936h0.251L157.014,30.398z M149.746,7.124c0-1.448,1.381-2.589,3.145-2.589
		c1.685,0,3.065,1.141,3.065,2.589c0,1.393-1.38,2.533-3.065,2.533C151.127,9.657,149.746,8.517,149.746,7.124z"/>
	<path class="st1" d="M170.935,15.181c-2.272,0-4.082,1.145-4.082,7.556c0,5.945,1.508,7.739,4.091,7.739
		c2.976,0,3.939-2.411,4.291-4.255c0.061-0.339,0.322-0.515,0.673-0.515c0.377,0,0.602,0.229,0.595,0.528
		c-0.124,1.635-1.072,5.642-6.675,5.642c-5.046,0-8.81-3.023-8.81-9.14c0-5.311,3.52-8.699,8.92-8.699
		c4.689,0,6.479,2.357,6.479,4.63c0,1.644-0.996,2.717-2.311,2.717c-1.006,0-1.825-0.601-1.825-1.496c0-1.5,2.005-1.298,2.005-2.605
		C174.287,16.034,172.831,15.181,170.935,15.181L170.935,15.181z"/>
	<path class="st1" d="M199.976,30.397c0.413,0,0.714,0.241,0.714,0.548c0,0.334-0.301,0.574-0.714,0.574h-8.205
		c-0.414,0-0.713-0.24-0.713-0.574c0-0.307,0.299-0.548,0.713-0.548h0.251c0.632,0,0.958-0.353,0.958-1.073V18.342
		c0-1.535-0.661-2.208-1.846-2.208c-1.641,0-3.295,1.81-3.295,5.612v7.578c0,0.721,0.324,1.073,0.958,1.073h0.251
		c0.413,0,0.714,0.241,0.714,0.548c0,0.334-0.301,0.574-0.714,0.574h-8.205c-0.414,0-0.713-0.24-0.713-0.574
		c0-0.307,0.299-0.548,0.713-0.548h0.251c0.652,0,1.091-0.369,1.091-0.936V14.65V5.88c0-0.566-0.438-0.935-1.091-0.935h-0.251
		c-0.413,0-0.714-0.241-0.714-0.548c0-0.334,0.301-0.575,0.714-0.575h6.997v13.263c1.127-1.971,3.073-3.05,5.557-3.05
		c3.057,0,5.238,1.482,5.238,4.397v11.029c0,0.567,0.438,0.936,1.091,0.936h0.251H199.976z"/>
	<path class="st1" d="M221.811,30.398c0.413,0,0.714,0.24,0.714,0.547c0,0.334-0.301,0.575-0.714,0.575h-8.338
		c-0.414,0-0.713-0.241-0.713-0.575c0-0.307,0.299-0.547,0.713-0.547h0.251c0.652,0,1.091-0.369,1.091-0.936v-4.249v-8.771
		c0-0.566-0.438-0.936-1.091-0.936h-0.251c-0.413,0-0.714-0.241-0.714-0.548c0-0.334,0.301-0.575,0.714-0.575h6.997v10.829v4.248
		c0,0.567,0.438,0.936,1.091,0.936h0.251L221.811,30.398z M214.543,7.124c0-1.448,1.381-2.589,3.145-2.589
		c1.685,0,3.065,1.141,3.065,2.589c0,1.393-1.38,2.533-3.065,2.533C215.924,9.657,214.543,8.517,214.543,7.124z"/>
	<path class="st1" d="M245.519,30.398c0.413,0,0.714,0.24,0.714,0.547c0,0.334-0.301,0.575-0.714,0.575h-8.205
		c-0.414,0-0.713-0.241-0.713-0.575c0-0.307,0.299-0.547,0.713-0.547h0.251c0.632,0,0.958-0.353,0.958-1.073V18.343
		c0-1.535-0.66-2.208-1.845-2.208c-1.641,0-3.295,1.81-3.295,5.611v7.579c0,0.721,0.324,1.073,0.958,1.073h0.251
		c0.413,0,0.714,0.24,0.714,0.547c0,0.334-0.301,0.575-0.714,0.575h-8.205c-0.414,0-0.713-0.241-0.713-0.575
		c0-0.307,0.299-0.547,0.713-0.547h0.251c0.652,0,1.091-0.369,1.091-0.936v-13.02c0-0.566-0.438-0.936-1.091-0.936h-0.251
		c-0.413,0-0.714-0.241-0.714-0.548c0-0.334,0.301-0.575,0.714-0.575h6.663v3.362c1.05-2.391,3.141-3.712,5.89-3.712
		c3.056,0,5.238,1.482,5.238,4.397v11.029c0,0.567,0.438,0.936,1.091,0.936L245.519,30.398L245.519,30.398z"/>
	<path class="st1" d="M278.147,30.398c0.413,0,0.714,0.241,0.714,0.548c0,0.334-0.301,0.575-0.714,0.575h-6.997v-2.721
		c-1.127,1.97-3.073,3.048-5.555,3.048c-3.057,0-5.238-1.479-5.238-4.396v-2.237v-8.771c0-0.566-0.438-0.936-1.091-0.936h-0.251
		c-0.413,0-0.714-0.241-0.714-0.548c0-0.334,0.301-0.575,0.714-0.575h6.997v6.731v6.425c0,1.535,0.661,2.208,1.846,2.208
		c1.616,0,3.246-1.756,3.294-5.44v-3.617v-4.249c0-0.566-0.438-0.936-1.091-0.936h-0.251c-0.413,0-0.714-0.241-0.714-0.548
		c0-0.334,0.301-0.575,0.714-0.575h6.997v10.829v4.248c0,0.567,0.438,0.936,1.091,0.936h0.251L278.147,30.398z"/>
	<path class="st1" d="M301.861,30.398c0.413,0,0.714,0.24,0.714,0.547c0,0.334-0.301,0.575-0.714,0.575h-8.205
		c-0.414,0-0.713-0.241-0.713-0.575c0-0.307,0.299-0.547,0.713-0.547h0.251c0.632,0,0.958-0.353,0.958-1.073V18.343
		c0-1.535-0.66-2.208-1.845-2.208c-1.641,0-3.295,1.81-3.295,5.611v7.579c0,0.721,0.324,1.073,0.958,1.073h0.251
		c0.413,0,0.714,0.24,0.714,0.547c0,0.334-0.301,0.575-0.714,0.575h-8.205c-0.414,0-0.713-0.241-0.713-0.575
		c0-0.307,0.299-0.547,0.713-0.547h0.251c0.652,0,1.091-0.369,1.091-0.936v-13.02c0-0.566-0.438-0.936-1.091-0.936h-0.251
		c-0.413,0-0.714-0.241-0.714-0.548c0-0.334,0.301-0.575,0.714-0.575h6.663v3.362c1.05-2.391,3.141-3.712,5.89-3.712
		c3.056,0,5.238,1.482,5.238,4.397v11.029c0,0.567,0.438,0.936,1.091,0.936L301.861,30.398L301.861,30.398z"/>
	<path class="st1" d="M314.356,14.998c0,4.54,6.846,5.917,6.846,11.103c0,3.714-4.035,5.774-8.413,5.774
		c-4.347,0-6.988-2.361-6.988-5.453c0-1.737,1.05-2.627,2.128-2.75l3.335-6.387c0.08-1.099,0.558-2.304,1.16-3.258
		c0.638-1.024,1.373-1.713,1.988-1.713c0.696,0,0.73,0.606,0.574,0.871C314.579,13.743,314.356,14.339,314.356,14.998
		L314.356,14.998z M315.933,27.238c0-2.764-3.246-4.628-4.333-7.652l-2.242,4.365c0.521,0.296,0.886,0.813,0.886,1.537
		c0,1.539-1.958,1.646-1.958,2.985c0,1.427,2.071,2.303,3.786,2.303C314.432,30.776,315.933,29.609,315.933,27.238z"/>
	<path class="st1" d="M341.21,21.917c0,0.656-0.327,1.013-1.125,1.013h-9.737c0,5.086,0.729,7.551,4.073,7.551
		c2.879,0,4.523-2.359,5.223-4.231c0.169-0.428,0.438-0.512,0.704-0.512c0.438,0,0.561,0.277,0.554,0.536
		c-0.063,1.434-1.785,5.603-7.414,5.603c-5.315,0-8.961-3.363-8.961-8.952c0-5.483,3.391-8.887,8.669-8.887
		C338.477,14.037,341.209,16.962,341.21,21.917L341.21,21.917z M335.741,21.89c-0.011-5.146-0.626-6.802-2.553-6.802
		c-1.91,0-2.735,1.849-2.831,6.802H335.741z"/>
	<path class="st1" d="M357.289,14.058c3.129,0,4.723,1.909,4.723,4.46c0,1.89-1.437,3.765-3.849,3.765
		c-1.573,0-2.671-1.014-2.671-2.245c0-1.894,2.401-2.014,2.401-3.19c0-0.656-0.601-1.167-1.742-1.167
		c-2.219,0-3.698,2.351-3.698,7.021v2.513v4.249c0,0.566,0.438,0.936,1.091,0.936h1.431c0.398,0,0.696,0.24,0.696,0.574
		c0,0.307-0.298,0.548-0.696,0.548h-9.518c-0.414,0-0.713-0.241-0.713-0.575c0-0.307,0.299-0.547,0.713-0.547h0.251
		c0.652,0,1.09-0.369,1.09-0.936v-4.249v-8.771c0-0.566-0.438-0.936-1.091-0.936h-0.251c-0.413,0-0.714-0.241-0.714-0.548
		c0-0.334,0.301-0.575,0.714-0.575h6.332v4.011C352.785,15.158,354.854,14.058,357.289,14.058L357.289,14.058z"/>
	<path class="st1" d="M382.156,21.917c0,0.656-0.327,1.013-1.125,1.013h-9.737c0,5.086,0.729,7.551,4.073,7.551
		c2.879,0,4.523-2.359,5.223-4.231c0.169-0.428,0.438-0.512,0.704-0.512c0.438,0,0.561,0.277,0.554,0.536
		c-0.063,1.434-1.785,5.603-7.414,5.603c-5.315,0-8.961-3.363-8.961-8.952c0-5.483,3.391-8.887,8.669-8.887
		C379.424,14.037,382.155,16.962,382.156,21.917L382.156,21.917z M376.687,21.89c-0.011-5.146-0.626-6.802-2.553-6.802
		c-1.91,0-2.735,1.849-2.831,6.802H376.687z"/>
	<path class="st1" d="M398.235,14.058c3.129,0,4.723,1.909,4.723,4.46c0,1.89-1.437,3.765-3.849,3.765
		c-1.573,0-2.671-1.014-2.671-2.245c0-1.894,2.401-2.014,2.401-3.19c0-0.656-0.601-1.167-1.742-1.167
		c-2.219,0-3.698,2.351-3.698,7.021v2.513v4.249c0,0.566,0.438,0.936,1.091,0.936h1.431c0.398,0,0.696,0.24,0.696,0.574
		c0,0.307-0.298,0.548-0.696,0.548h-9.518c-0.414,0-0.713-0.241-0.713-0.575c0-0.307,0.299-0.547,0.713-0.547h0.251
		c0.652,0,1.09-0.369,1.09-0.936v-4.249v-8.771c0-0.566-0.438-0.936-1.091-0.936h-0.251c-0.413,0-0.714-0.241-0.714-0.548
		c0-0.334,0.301-0.575,0.714-0.575h6.332v4.011C393.731,15.158,395.8,14.058,398.235,14.058L398.235,14.058z"/>
	<path class="st1" d="M433.304,24.262c0.371,0,0.663,0.246,0.663,0.575v6.683h-18.056c-0.404,0-0.695-0.24-0.695-0.574
		c0-0.307,0.292-0.548,0.695-0.548h0.501c0.897,0,1.465-0.572,1.465-1.184V8.788c0-0.611-0.567-1.184-1.465-1.184h-0.501
		c-0.404,0-0.695-0.241-0.695-0.548c0-0.334,0.292-0.575,0.695-0.575h10.387c0.404,0,0.696,0.241,0.696,0.575
		c0,0.307-0.292,0.548-0.696,0.548h-0.501c-0.897,0-1.464,0.572-1.464,1.184v20.426c0,0.611,0.567,1.184,1.464,1.184h2.735
		c2.511,0,4.077-2.047,4.077-4.998v-0.562C432.609,24.509,432.9,24.263,433.304,24.262L433.304,24.262z"/>
	<path class="st1" d="M445.936,30.398c0.413,0,0.714,0.24,0.714,0.547c0,0.334-0.301,0.575-0.714,0.575h-8.338
		c-0.414,0-0.713-0.241-0.713-0.575c0-0.307,0.299-0.547,0.713-0.547h0.251c0.652,0,1.091-0.369,1.091-0.936v-4.249v-8.771
		c0-0.566-0.438-0.936-1.091-0.936h-0.251c-0.413,0-0.714-0.241-0.714-0.548c0-0.334,0.301-0.575,0.714-0.575h6.997v10.829v4.248
		c0,0.567,0.438,0.936,1.091,0.936h0.251L445.936,30.398z M438.669,7.124c0-1.448,1.381-2.589,3.145-2.589
		c1.685,0,3.065,1.141,3.065,2.589c0,1.393-1.38,2.533-3.065,2.533C440.049,9.657,438.669,8.517,438.669,7.124z"/>
	<path class="st1" d="M458.473,14.998c0,4.54,6.846,5.917,6.846,11.103c0,3.714-4.035,5.774-8.413,5.774
		c-4.347,0-6.988-2.361-6.988-5.453c0-1.737,1.05-2.627,2.128-2.75l3.335-6.387c0.08-1.099,0.558-2.304,1.16-3.258
		c0.638-1.024,1.373-1.713,1.988-1.713c0.696,0,0.73,0.606,0.574,0.871C458.696,13.743,458.473,14.339,458.473,14.998
		L458.473,14.998z M460.05,27.238c0-2.764-3.246-4.628-4.333-7.652l-2.242,4.365c0.521,0.296,0.886,0.813,0.886,1.537
		c0,1.539-1.958,1.646-1.958,2.985c0,1.427,2.071,2.303,3.786,2.303C458.549,30.776,460.05,29.609,460.05,27.238z"/>
	<path class="st1" d="M480.705,27.65c0.415,0,0.613,0.263,0.613,0.511c0,1.683-1.895,3.714-5.142,3.714
		c-2.704,0-5.618-1.306-5.618-4.779V15.508H469.2c-0.398,0-0.696-0.241-0.696-0.575c0-0.307,0.298-0.549,0.696-0.549h0.474
		c2.872,0,5.115-1.954,5.177-5.324V8.677c0-0.329,0.292-0.575,0.696-0.575c0.371,0,0.662,0.246,0.662,0.575v0.24v5.467h4.412
		c0.397,0,0.695,0.242,0.695,0.576c0,0.307-0.298,0.548-0.695,0.548h-4.412v11.588c0,2.002,0.748,2.704,2.031,2.704
		c0.884,0,1.479-0.484,1.833-1.622c0.123-0.319,0.347-0.525,0.63-0.525L480.705,27.65z"/>
	<path class="st1" d="M501.043,21.917c0,0.656-0.327,1.013-1.125,1.013h-9.737c0,5.086,0.729,7.551,4.073,7.551
		c2.879,0,4.523-2.359,5.223-4.231c0.169-0.428,0.438-0.512,0.704-0.512c0.438,0,0.561,0.277,0.554,0.536
		c-0.063,1.434-1.785,5.603-7.414,5.603c-5.315,0-8.961-3.363-8.961-8.952c0-5.483,3.391-8.887,8.669-8.887
		C498.31,14.037,501.042,16.962,501.043,21.917L501.043,21.917z M495.574,21.89c-0.011-5.146-0.626-6.802-2.553-6.802
		c-1.91,0-2.735,1.849-2.831,6.802H495.574z"/>
	<path class="st1" d="M530.363,21.917c0,0.656-0.327,1.013-1.125,1.013h-9.737c0,5.086,0.729,7.551,4.073,7.551
		c2.879,0,4.523-2.359,5.224-4.231c0.168-0.428,0.437-0.512,0.704-0.512c0.438,0,0.56,0.277,0.554,0.536
		c-0.063,1.434-1.785,5.603-7.414,5.603c-5.315,0-8.961-3.363-8.961-8.952c0-5.483,3.391-8.887,8.669-8.887
		C527.63,14.037,530.362,16.962,530.363,21.917L530.363,21.917z M524.894,21.89c-0.011-5.146-0.625-6.802-2.553-6.802
		c-1.91,0-2.735,1.849-2.831,6.802H524.894z"/>
	<path class="st1" d="M542.948,30.398c0.413,0,0.714,0.24,0.714,0.547c0,0.334-0.301,0.575-0.714,0.575h-8.338
		c-0.414,0-0.713-0.241-0.713-0.575c0-0.307,0.299-0.547,0.713-0.547h0.251c0.652,0,1.091-0.369,1.091-0.936v-4.249v-8.771
		c0-0.566-0.438-0.936-1.091-0.936h-0.251c-0.413,0-0.714-0.241-0.714-0.548c0-0.334,0.301-0.575,0.714-0.575h6.997v10.829v4.248
		c0,0.567,0.438,0.936,1.091,0.936h0.251L542.948,30.398z M535.68,7.124c0-1.448,1.381-2.589,3.145-2.589
		c1.685,0,3.065,1.141,3.065,2.589c0,1.393-1.38,2.533-3.065,2.533C537.061,9.657,535.68,8.517,535.68,7.124z"/>
	<path class="st1" d="M566.655,30.398c0.413,0,0.714,0.24,0.714,0.547c0,0.334-0.301,0.575-0.714,0.575h-8.205
		c-0.414,0-0.713-0.241-0.713-0.575c0-0.307,0.299-0.547,0.713-0.547h0.251c0.632,0,0.958-0.353,0.958-1.073V18.343
		c0-1.535-0.66-2.208-1.845-2.208c-1.641,0-3.295,1.81-3.295,5.611v7.579c0,0.721,0.324,1.073,0.958,1.073h0.251
		c0.413,0,0.714,0.24,0.714,0.547c0,0.334-0.301,0.575-0.714,0.575h-8.205c-0.414,0-0.713-0.241-0.713-0.575
		c0-0.307,0.299-0.547,0.713-0.547h0.251c0.652,0,1.091-0.369,1.091-0.936v-13.02c0-0.566-0.438-0.936-1.091-0.936h-0.251
		c-0.413,0-0.714-0.241-0.714-0.548c0-0.334,0.301-0.575,0.714-0.575h6.663v3.362c1.05-2.391,3.141-3.712,5.89-3.712
		c3.056,0,5.238,1.482,5.238,4.397v11.029c0,0.567,0.438,0.936,1.091,0.936L566.655,30.398L566.655,30.398z"/>
	<path class="st1" d="M599.283,30.398c0.413,0,0.714,0.241,0.714,0.548c0,0.334-0.301,0.575-0.714,0.575h-6.997v-2.721
		c-1.127,1.97-3.073,3.048-5.555,3.048c-3.057,0-5.238-1.479-5.238-4.396v-2.237v-8.771c0-0.566-0.438-0.936-1.091-0.936h-0.251
		c-0.413,0-0.714-0.241-0.714-0.548c0-0.334,0.301-0.575,0.714-0.575h6.997v6.731v6.425c0,1.535,0.661,2.208,1.846,2.208
		c1.616,0,3.246-1.756,3.294-5.44v-3.617v-4.249c0-0.566-0.438-0.936-1.091-0.936h-0.251c-0.413,0-0.714-0.241-0.714-0.548
		c0-0.334,0.301-0.575,0.714-0.575h6.997v10.829v4.248c0,0.567,0.438,0.936,1.091,0.936h0.251L599.283,30.398z"/>
	<path class="st1" d="M622.997,30.398c0.413,0,0.714,0.24,0.714,0.547c0,0.334-0.301,0.575-0.714,0.575h-8.205
		c-0.414,0-0.713-0.241-0.713-0.575c0-0.307,0.299-0.547,0.713-0.547h0.251c0.632,0,0.958-0.353,0.958-1.073V18.343
		c0-1.535-0.66-2.208-1.845-2.208c-1.641,0-3.295,1.81-3.295,5.611v7.579c0,0.721,0.324,1.073,0.958,1.073h0.251
		c0.413,0,0.714,0.24,0.714,0.547c0,0.334-0.301,0.575-0.714,0.575h-8.205c-0.414,0-0.713-0.241-0.713-0.575
		c0-0.307,0.299-0.547,0.713-0.547h0.251c0.652,0,1.091-0.369,1.091-0.936v-13.02c0-0.566-0.438-0.936-1.091-0.936h-0.251
		c-0.413,0-0.714-0.241-0.714-0.548c0-0.334,0.301-0.575,0.714-0.575h6.663v3.362c1.05-2.391,3.141-3.712,5.89-3.712
		c3.056,0,5.238,1.482,5.238,4.397v11.029c0,0.567,0.438,0.936,1.091,0.936L622.997,30.398L622.997,30.398z"/>
	<path class="st1" d="M645.919,30.398c0.413,0,0.713,0.24,0.713,0.547c0,0.334-0.3,0.575-0.713,0.575h-1.344v0.005h-5.653V28.63
		c-0.726,1.969-2.371,3.245-5.069,3.245c-3.492,0-6.893-2.411-6.893-8.925c0-6.494,3.374-8.908,6.856-8.908
		c2.677,0,4.376,1.23,5.105,3.272v-2.663V5.881c0-0.566-0.438-0.936-1.091-0.936h-0.251c-0.414,0-0.714-0.241-0.714-0.548
		c0-0.334,0.3-0.575,0.714-0.575h6.997v10.829v6.041v8.77c0,0.567,0.438,0.936,1.091,0.936L645.919,30.398L645.919,30.398z
		 M638.929,22.94c0-3.299-1.068-7.344-3.489-7.344c-1.656,0-2.609,1.807-2.609,7.354c0,5.493,0.954,7.372,2.609,7.372
		C637.861,30.322,638.929,26.217,638.929,22.94z"/>
	<path class="st1" d="M667.386,14.998c0,4.54,6.846,5.917,6.846,11.103c0,3.714-4.035,5.774-8.413,5.774
		c-4.347,0-6.988-2.361-6.988-5.453c0-1.737,1.05-2.627,2.128-2.75l3.335-6.387c0.08-1.099,0.558-2.304,1.16-3.258
		c0.638-1.024,1.373-1.713,1.988-1.713c0.696,0,0.73,0.606,0.574,0.871C667.61,13.743,667.386,14.339,667.386,14.998L667.386,14.998
		z M668.964,27.238c0-2.764-3.246-4.628-4.333-7.652l-2.242,4.365c0.521,0.296,0.886,0.813,0.886,1.537
		c0,1.539-1.958,1.646-1.958,2.985c0,1.427,2.071,2.303,3.786,2.303C667.463,30.776,668.964,29.609,668.964,27.238z"/>
	<path class="st1" d="M686.467,30.398c0.413,0,0.714,0.24,0.714,0.547c0,0.334-0.301,0.575-0.714,0.575h-8.338
		c-0.414,0-0.713-0.241-0.713-0.575c0-0.307,0.299-0.547,0.713-0.547h0.251c0.652,0,1.091-0.369,1.091-0.936v-4.249v-8.771
		c0-0.566-0.438-0.936-1.091-0.936h-0.251c-0.413,0-0.714-0.241-0.714-0.548c0-0.334,0.301-0.575,0.714-0.575h6.997v10.829v4.248
		c0,0.567,0.438,0.936,1.091,0.936h0.251L686.467,30.398z M679.199,7.124c0-1.448,1.381-2.589,3.145-2.589
		c1.685,0,3.065,1.141,3.065,2.589c0,1.393-1.38,2.533-3.065,2.533C680.58,9.657,679.199,8.517,679.199,7.124z"/>
	<path class="st1" d="M700.388,15.181c-2.272,0-4.082,1.145-4.082,7.556c0,5.945,1.508,7.739,4.091,7.739
		c2.976,0,3.939-2.411,4.291-4.255c0.061-0.339,0.322-0.515,0.673-0.515c0.377,0,0.602,0.229,0.595,0.528
		c-0.124,1.635-1.072,5.642-6.675,5.642c-5.046,0-8.81-3.023-8.81-9.14c0-5.311,3.52-8.699,8.92-8.699
		c4.689,0,6.479,2.357,6.479,4.63c0,1.644-0.996,2.717-2.311,2.717c-1.006,0-1.825-0.601-1.825-1.496c0-1.5,2.005-1.298,2.005-2.605
		C703.74,16.034,702.284,15.181,700.388,15.181L700.388,15.181z"/>
	<path class="st1" d="M729.429,30.397c0.413,0,0.714,0.241,0.714,0.548c0,0.334-0.301,0.574-0.714,0.574h-8.205
		c-0.414,0-0.713-0.24-0.713-0.574c0-0.307,0.299-0.548,0.713-0.548h0.251c0.632,0,0.958-0.353,0.958-1.073V18.342
		c0-1.535-0.661-2.208-1.846-2.208c-1.641,0-3.295,1.81-3.295,5.612v7.578c0,0.721,0.324,1.073,0.958,1.073h0.251
		c0.413,0,0.714,0.241,0.714,0.548c0,0.334-0.301,0.574-0.714,0.574h-8.205c-0.414,0-0.713-0.24-0.713-0.574
		c0-0.307,0.299-0.548,0.713-0.548h0.251c0.652,0,1.091-0.369,1.091-0.936V14.65V5.88c0-0.566-0.438-0.935-1.091-0.935h-0.251
		c-0.413,0-0.714-0.241-0.714-0.548c0-0.334,0.301-0.575,0.714-0.575h6.997v13.263c1.127-1.971,3.073-3.05,5.557-3.05
		c3.057,0,5.238,1.482,5.238,4.397v11.029c0,0.567,0.438,0.936,1.091,0.936h0.251H729.429z"/>
	<path class="st1" d="M750.076,21.917c0,0.656-0.327,1.013-1.125,1.013h-9.737c0,5.086,0.729,7.551,4.073,7.551
		c2.879,0,4.523-2.359,5.223-4.231c0.169-0.428,0.438-0.512,0.704-0.512c0.438,0,0.561,0.277,0.554,0.536
		c-0.063,1.434-1.785,5.603-7.414,5.603c-5.315,0-8.961-3.363-8.961-8.952c0-5.483,3.391-8.887,8.669-8.887
		C747.343,14.037,750.075,16.962,750.076,21.917L750.076,21.917z M744.607,21.89c-0.011-5.146-0.626-6.802-2.553-6.802
		c-1.91,0-2.735,1.849-2.831,6.802H744.607z"/>
	<path class="st1" d="M766.155,14.058c3.129,0,4.723,1.909,4.723,4.46c0,1.89-1.437,3.765-3.849,3.765
		c-1.573,0-2.671-1.014-2.671-2.245c0-1.894,2.401-2.014,2.401-3.19c0-0.656-0.601-1.167-1.742-1.167
		c-2.219,0-3.698,2.351-3.698,7.021v2.513v4.249c0,0.566,0.438,0.936,1.091,0.936h1.431c0.398,0,0.696,0.24,0.696,0.574
		c0,0.307-0.298,0.548-0.696,0.548h-9.518c-0.414,0-0.713-0.241-0.713-0.575c0-0.307,0.299-0.547,0.713-0.547h0.251
		c0.652,0,1.09-0.369,1.09-0.936v-4.249v-8.771c0-0.566-0.438-0.936-1.091-0.936h-0.251c-0.413,0-0.714-0.241-0.714-0.548
		c0-0.334,0.301-0.575,0.714-0.575h6.332v4.011C761.651,15.158,763.72,14.058,766.155,14.058L766.155,14.058z"/>
	<path class="st1" d="M791.023,21.917c0,0.656-0.327,1.013-1.126,1.013h-9.737c0,5.086,0.729,7.551,4.074,7.551
		c2.879,0,4.522-2.359,5.223-4.231c0.169-0.428,0.438-0.512,0.704-0.512c0.438,0,0.561,0.277,0.554,0.536
		c-0.063,1.434-1.784,5.603-7.413,5.603c-5.315,0-8.962-3.363-8.962-8.952c0-5.483,3.392-8.887,8.669-8.887
		C788.29,14.037,791.022,16.962,791.023,21.917L791.023,21.917z M785.553,21.89c-0.012-5.146-0.626-6.802-2.553-6.802
		c-1.91,0-2.735,1.849-2.831,6.802H785.553z"/>
	<path class="st1" d="M11.926,51.481c7.167,0,13.193,3.553,13.193,12.349c0,8.424-5.867,12.69-13.193,12.69H1.803
		c-0.404,0-0.696-0.241-0.696-0.575c0-0.307,0.292-0.548,0.696-0.548h0.501c0.897,0,1.465-0.572,1.465-1.183V53.788
		c0-0.61-0.567-1.184-1.465-1.184H1.803c-0.404,0-0.696-0.241-0.696-0.548c0-0.334,0.292-0.574,0.696-0.574L11.926,51.481
		L11.926,51.481z M18.545,63.83c0-7.737-2.474-11.226-6.619-11.226h-0.268c-0.727,0-1.431,0.458-1.431,1.184v20.427
		c0,0.669,0.617,1.183,1.431,1.183h0.268C15.973,75.397,18.545,71.72,18.545,63.83z"/>
	<path class="st1" d="M38.356,75.398c0.413,0,0.714,0.24,0.714,0.547c0,0.334-0.301,0.575-0.714,0.575h-8.338
		c-0.414,0-0.713-0.241-0.713-0.575c0-0.307,0.299-0.547,0.713-0.547h0.251c0.652,0,1.091-0.369,1.091-0.936v-4.249v-8.771
		c0-0.566-0.438-0.936-1.091-0.936h-0.251c-0.413,0-0.714-0.241-0.714-0.548c0-0.334,0.301-0.575,0.714-0.575h6.997v10.829v4.248
		c0,0.567,0.438,0.936,1.091,0.936h0.251L38.356,75.398z M31.089,52.124c0-1.448,1.381-2.589,3.145-2.589
		c1.685,0,3.065,1.141,3.065,2.589c0,1.393-1.38,2.533-3.065,2.533C32.469,54.657,31.089,53.517,31.089,52.124z"/>
	<path class="st1" d="M54.763,59.058c3.129,0,4.723,1.909,4.723,4.46c0,1.89-1.437,3.765-3.849,3.765
		c-1.573,0-2.671-1.014-2.671-2.245c0-1.894,2.401-2.014,2.401-3.19c0-0.656-0.601-1.167-1.742-1.167
		c-2.219,0-3.698,2.351-3.698,7.021v2.513v4.249c0,0.566,0.438,0.936,1.091,0.936h1.431c0.398,0,0.696,0.24,0.696,0.574
		c0,0.307-0.298,0.548-0.696,0.548h-9.518c-0.414,0-0.713-0.241-0.713-0.575c0-0.307,0.299-0.547,0.713-0.547h0.251
		c0.652,0,1.09-0.369,1.09-0.936v-4.249v-8.771c0-0.566-0.438-0.936-1.091-0.936h-0.251c-0.413,0-0.714-0.241-0.714-0.548
		c0-0.334,0.301-0.575,0.714-0.575h6.332v4.011C50.259,60.158,52.329,59.058,54.763,59.058L54.763,59.058z"/>
	<path class="st1" d="M90.868,75.398c0.413,0,0.713,0.24,0.713,0.547c0,0.334-0.3,0.575-0.713,0.575h-1.344v0.005h-5.653V73.63
		c-0.726,1.969-2.371,3.245-5.069,3.245c-3.492,0-6.893-2.411-6.893-8.925c0-6.494,3.374-8.908,6.856-8.908
		c2.677,0,4.376,1.23,5.105,3.272v-2.663v-8.771c0-0.566-0.438-0.936-1.091-0.936h-0.251c-0.414,0-0.714-0.241-0.714-0.548
		c0-0.334,0.3-0.575,0.714-0.575h6.997v10.829v6.041v8.77c0,0.567,0.438,0.936,1.091,0.936L90.868,75.398L90.868,75.398z
		 M83.878,67.94c0-3.299-1.068-7.344-3.489-7.344c-1.656,0-2.609,1.807-2.609,7.354c0,5.493,0.954,7.372,2.609,7.372
		C82.81,75.322,83.878,71.217,83.878,67.94z"/>
	<path class="st1" d="M111.525,66.917c0,0.656-0.327,1.013-1.125,1.013h-9.737c0,5.086,0.729,7.551,4.073,7.551
		c2.879,0,4.523-2.359,5.223-4.231c0.169-0.428,0.438-0.512,0.704-0.512c0.438,0,0.561,0.277,0.554,0.536
		c-0.063,1.434-1.785,5.603-7.414,5.603c-5.315,0-8.961-3.363-8.961-8.952c0-5.483,3.391-8.887,8.669-8.887
		C108.792,59.037,111.524,61.962,111.525,66.917L111.525,66.917z M106.055,66.89c-0.011-5.146-0.626-6.802-2.553-6.802
		c-1.91,0-2.735,1.849-2.831,6.802H106.055z"/>
	<path class="st1" d="M124.11,75.398c0.413,0,0.714,0.24,0.714,0.547c0,0.334-0.301,0.575-0.714,0.575h-8.338
		c-0.414,0-0.713-0.241-0.713-0.575c0-0.307,0.299-0.547,0.713-0.547h0.251c0.652,0,1.091-0.369,1.091-0.936v-4.249v-8.771
		c0-0.566-0.438-0.936-1.091-0.936h-0.251c-0.413,0-0.714-0.241-0.714-0.548c0-0.334,0.301-0.575,0.714-0.575h6.997v10.829v4.248
		c0,0.567,0.438,0.936,1.091,0.936h0.251L124.11,75.398z M116.842,52.124c0-1.448,1.381-2.589,3.145-2.589
		c1.685,0,3.065,1.141,3.065,2.589c0,1.393-1.38,2.533-3.065,2.533C118.223,54.657,116.842,53.517,116.842,52.124z"/>
	<path class="st1" d="M147.818,75.398c0.413,0,0.714,0.24,0.714,0.547c0,0.334-0.301,0.575-0.714,0.575h-8.205
		c-0.414,0-0.713-0.241-0.713-0.575c0-0.307,0.299-0.547,0.713-0.547h0.251c0.632,0,0.958-0.353,0.958-1.073V63.343
		c0-1.535-0.66-2.208-1.845-2.208c-1.641,0-3.295,1.81-3.295,5.611v7.579c0,0.721,0.324,1.073,0.958,1.073h0.251
		c0.413,0,0.714,0.24,0.714,0.547c0,0.334-0.301,0.575-0.714,0.575h-8.205c-0.414,0-0.713-0.241-0.713-0.575
		c0-0.307,0.299-0.547,0.713-0.547h0.251c0.652,0,1.091-0.369,1.091-0.936v-13.02c0-0.566-0.438-0.936-1.091-0.936h-0.251
		c-0.413,0-0.714-0.241-0.714-0.548c0-0.334,0.301-0.575,0.714-0.575h6.663v3.362c1.05-2.391,3.141-3.712,5.89-3.712
		c3.056,0,5.238,1.482,5.238,4.397v11.029c0,0.567,0.438,0.936,1.091,0.936L147.818,75.398L147.818,75.398z"/>
	<path class="st1" d="M168.464,66.917c0,0.656-0.327,1.013-1.125,1.013h-9.737c0,5.086,0.729,7.551,4.073,7.551
		c2.879,0,4.523-2.359,5.224-4.231c0.168-0.428,0.437-0.512,0.704-0.512c0.438,0,0.56,0.277,0.554,0.536
		c-0.063,1.434-1.785,5.603-7.414,5.603c-5.315,0-8.961-3.363-8.961-8.952c0-5.483,3.391-8.887,8.669-8.887
		C165.731,59.037,168.463,61.962,168.464,66.917L168.464,66.917z M162.994,66.89c-0.011-5.146-0.625-6.802-2.553-6.802
		c-1.91,0-2.735,1.849-2.831,6.802H162.994z"/>
	<path class="st1" d="M191.843,75.398c0.413,0,0.714,0.24,0.714,0.547c0,0.334-0.301,0.575-0.714,0.575h-8.205
		c-0.414,0-0.713-0.241-0.713-0.575c0-0.307,0.299-0.547,0.713-0.547h0.251c0.632,0,0.958-0.353,0.958-1.073V63.343
		c0-1.535-0.66-2.208-1.845-2.208c-1.641,0-3.295,1.81-3.295,5.611v7.579c0,0.721,0.324,1.073,0.958,1.073h0.251
		c0.413,0,0.714,0.24,0.714,0.547c0,0.334-0.301,0.575-0.714,0.575h-8.205c-0.414,0-0.713-0.241-0.713-0.575
		c0-0.307,0.299-0.547,0.713-0.547h0.251c0.652,0,1.091-0.369,1.091-0.936v-13.02c0-0.566-0.438-0.936-1.091-0.936h-0.251
		c-0.413,0-0.714-0.241-0.714-0.548c0-0.334,0.301-0.575,0.714-0.575h6.663v3.362c1.05-2.391,3.141-3.712,5.89-3.712
		c3.056,0,5.238,1.482,5.238,4.397v11.029c0,0.567,0.438,0.936,1.091,0.936L191.843,75.398L191.843,75.398z"/>
	<path class="st1" d="M213.718,66.783v7.432c0,0.61,0.567,1.183,1.464,1.183h1.244c0.397,0,0.695,0.241,0.695,0.575
		c0,0.307-0.298,0.548-0.696,0.548h-11.131c-0.404,0-0.695-0.241-0.695-0.575c0-0.307,0.292-0.548,0.695-0.548h0.501
		c0.897,0,1.465-0.572,1.465-1.183V53.788c0-0.61-0.567-1.184-1.465-1.184h-0.501c-0.404,0-0.695-0.241-0.695-0.548
		c0-0.334,0.292-0.574,0.695-0.574h10.96c5.923,0,10.079,2.376,10.079,7.351c0,5.331-4.255,7.95-10.877,7.95H213.718z
		 M215.182,52.604c-0.897,0-1.464,0.573-1.464,1.184V65.66h1.558c2.738,0,4.5-2.324,4.5-6.827c0-4.073-1.573-6.229-4.167-6.229
		H215.182z"/>
	<path class="st1" d="M238.952,75.397c0.413,0,0.714,0.241,0.714,0.548c0,0.334-0.301,0.575-0.714,0.575h-8.338
		c-0.414,0-0.713-0.241-0.713-0.575c0-0.307,0.299-0.548,0.713-0.548h0.251c0.652,0,1.091-0.368,1.091-0.936V59.651v-8.771
		c0-0.566-0.438-0.936-1.091-0.936h-0.251c-0.413,0-0.714-0.241-0.714-0.548c0-0.334,0.301-0.575,0.714-0.575h6.997v16.87v8.77
		c0,0.567,0.438,0.936,1.091,0.936h0.251H238.952z"/>
	<path class="st1" d="M261.914,75.398c0.413,0,0.713,0.24,0.713,0.547c0,0.334-0.3,0.575-0.713,0.575h-1.343v0.005h-5.653V73.63
		c-0.726,1.969-2.371,3.245-5.069,3.245c-3.492,0-6.893-2.411-6.893-8.925c0-6.494,3.374-8.908,6.856-8.908
		c2.677,0,4.377,1.23,5.106,3.272v-2.924h5.653v6.302v8.77c0,0.567,0.438,0.936,1.091,0.936L261.914,75.398L261.914,75.398z
		 M254.926,67.94c0-3.299-1.069-7.344-3.489-7.344c-1.656,0-2.609,1.807-2.609,7.354c0,5.493,0.953,7.372,2.609,7.372
		C253.857,75.322,254.926,71.217,254.926,67.94z"/>
	<path class="st1" d="M277.949,72.65c0.415,0,0.613,0.263,0.613,0.511c0,1.683-1.895,3.714-5.142,3.714
		c-2.704,0-5.618-1.306-5.618-4.779V60.508h-1.357c-0.398,0-0.696-0.241-0.696-0.575c0-0.307,0.298-0.549,0.696-0.549h0.474
		c2.872,0,5.115-1.954,5.177-5.324v-0.383c0-0.329,0.292-0.575,0.696-0.575c0.371,0,0.662,0.246,0.662,0.575v0.24v5.467h4.412
		c0.397,0,0.695,0.242,0.695,0.576c0,0.307-0.298,0.548-0.695,0.548h-4.412v11.588c0,2.002,0.748,2.704,2.031,2.704
		c0.884,0,1.479-0.484,1.833-1.622c0.123-0.319,0.347-0.525,0.63-0.525L277.949,72.65z"/>
	<path class="st1" d="M296.577,69.837v6.684h-14.41v-1.123l8.278-14.89h-2.759c-2.511,0-4.077,2.046-4.077,4.998v0.562
		c0,0.329-0.292,0.575-0.695,0.575c-0.371,0-0.663-0.246-0.663-0.575v-6.683h14.287v1.096l-8.49,14.917h3.095
		c2.511,0,4.077-2.047,4.077-4.998v-0.562c0-0.328,0.292-0.574,0.696-0.574C296.286,69.263,296.577,69.509,296.577,69.837z"/>
	<path class="st1" d="M328.917,75.398c0.413,0,0.713,0.24,0.713,0.547c0,0.334-0.3,0.575-0.713,0.575h-1.343v0.005h-5.653V73.63
		c-0.726,1.969-2.371,3.245-5.069,3.245c-3.492,0-6.893-2.411-6.893-8.925c0-6.494,3.374-8.908,6.856-8.908
		c2.677,0,4.377,1.23,5.106,3.272v-2.924h5.653v6.302v8.77c0,0.567,0.438,0.936,1.091,0.936L328.917,75.398L328.917,75.398z
		 M321.929,67.94c0-3.299-1.069-7.344-3.489-7.344c-1.656,0-2.609,1.807-2.609,7.354c0,5.493,0.953,7.372,2.609,7.372
		C320.86,75.322,321.929,71.217,321.929,67.94z"/>
	<path class="st1" d="M352.594,75.398c0.413,0,0.714,0.241,0.714,0.548c0,0.334-0.301,0.575-0.714,0.575h-6.997v-2.721
		c-1.127,1.97-3.073,3.048-5.555,3.048c-3.057,0-5.238-1.479-5.238-4.396v-2.237v-8.771c0-0.566-0.438-0.936-1.091-0.936h-0.251
		c-0.413,0-0.714-0.241-0.714-0.548c0-0.334,0.301-0.575,0.714-0.575h6.997v6.731v6.425c0,1.535,0.661,2.208,1.846,2.208
		c1.616,0,3.246-1.756,3.294-5.44v-3.617v-4.249c0-0.566-0.438-0.936-1.091-0.936h-0.251c-0.413,0-0.714-0.241-0.714-0.548
		c0-0.334,0.301-0.575,0.714-0.575h6.997v10.829v4.248c0,0.567,0.438,0.936,1.091,0.936h0.251L352.594,75.398z"/>
	<path class="st1" d="M365.44,48.39c3.035,0,5.219,1.368,5.219,4.056c0,1.912-1.308,2.907-2.747,2.907
		c-1.143,0-2.12-0.664-2.12-1.759c0-1.537,2.034-1.687,2.034-2.84c0-0.796-0.75-1.285-1.748-1.285c-1.359,0-1.907,0.873-1.907,2.573
		v7.344h2.256c0.397,0,0.695,0.241,0.695,0.575c0,0.307-0.298,0.548-0.695,0.548h-2.256v5.186v8.771c0,0.546,0.406,0.908,1.02,0.935
		h1.235c0.397,0,0.695,0.241,0.695,0.575c0,0.306-0.298,0.547-0.695,0.547h-0.857c-0.019,0.001-0.037,0.002-0.056,0.002h-8.338
		c-0.414,0-0.713-0.241-0.713-0.575c0-0.307,0.299-0.548,0.713-0.548h0.251c0.652,0,1.091-0.369,1.091-0.936v-5.58v-8.376h-1.359
		c-0.397,0-0.695-0.241-0.695-0.575c0-0.307,0.298-0.548,0.695-0.548h1.359v-5.523C358.519,50.232,361.505,48.389,365.44,48.39
		L365.44,48.39z"/>
	<path class="st1" d="M398.541,75.398c0.413,0,0.713,0.24,0.713,0.547c0,0.334-0.3,0.575-0.713,0.575h-1.344v0.005h-5.653V73.63
		c-0.726,1.969-2.371,3.245-5.069,3.245c-3.492,0-6.893-2.411-6.893-8.925c0-6.494,3.374-8.908,6.856-8.908
		c2.677,0,4.376,1.23,5.105,3.272v-2.663v-8.771c0-0.566-0.438-0.936-1.091-0.936h-0.251c-0.414,0-0.714-0.241-0.714-0.548
		c0-0.334,0.3-0.575,0.714-0.575h6.997v10.829v6.041v8.77c0,0.567,0.438,0.936,1.091,0.936L398.541,75.398L398.541,75.398z
		 M391.551,67.94c0-3.299-1.068-7.344-3.489-7.344c-1.656,0-2.609,1.807-2.609,7.354c0,5.493,0.954,7.372,2.609,7.372
		C390.483,75.322,391.551,71.217,391.551,67.94z"/>
	<path class="st1" d="M419.197,66.917c0,0.656-0.327,1.013-1.125,1.013h-9.737c0,5.086,0.729,7.551,4.073,7.551
		c2.879,0,4.523-2.359,5.223-4.231c0.169-0.428,0.438-0.512,0.704-0.512c0.438,0,0.561,0.277,0.554,0.536
		c-0.063,1.434-1.785,5.603-7.414,5.603c-5.315,0-8.961-3.363-8.961-8.952c0-5.483,3.391-8.887,8.669-8.887
		C416.465,59.037,419.196,61.962,419.197,66.917L419.197,66.917z M413.728,66.89c-0.011-5.146-0.626-6.802-2.553-6.802
		c-1.91,0-2.735,1.849-2.831,6.802H413.728z"/>
	<path class="st1" d="M435.276,59.058c3.129,0,4.723,1.909,4.723,4.46c0,1.89-1.437,3.765-3.849,3.765
		c-1.573,0-2.671-1.014-2.671-2.245c0-1.894,2.401-2.014,2.401-3.19c0-0.656-0.601-1.167-1.742-1.167
		c-2.219,0-3.698,2.351-3.698,7.021v2.513v4.249c0,0.566,0.438,0.936,1.091,0.936h1.431c0.398,0,0.696,0.24,0.696,0.574
		c0,0.307-0.298,0.548-0.696,0.548h-9.518c-0.414,0-0.713-0.241-0.713-0.575c0-0.307,0.299-0.547,0.713-0.547h0.251
		c0.652,0,1.09-0.369,1.09-0.936v-4.249v-8.771c0-0.566-0.438-0.936-1.091-0.936h-0.251c-0.413,0-0.714-0.241-0.714-0.548
		c0-0.334,0.301-0.575,0.714-0.575h6.332v4.011C430.772,60.158,432.841,59.058,435.276,59.058L435.276,59.058z"/>
	<path class="st1" d="M483.6,51.481c0.401,0,0.696,0.243,0.696,0.575c0,0.302-0.294,0.548-0.696,0.548h-0.707
		c-0.673,0-1.329,0.34-1.612,1.329l-6.526,22.755h-2.14l-4.771-15.595l-4.941,15.595h-2.163l-6.85-22.765
		c-0.303-1.008-1.029-1.319-1.438-1.319h-0.547c-0.402,0-0.696-0.244-0.696-0.575c0-0.305,0.294-0.548,0.696-0.548h10.601
		c0.402,0,0.696,0.243,0.696,0.575c0,0.304-0.294,0.548-0.696,0.548h-0.862c-0.829,0-1.276,0.557-1.047,1.33l3.853,13.128
		l4.952-15.58h1.84l4.896,14.965l3.574-12.513c0.221-0.771-0.204-1.33-1.08-1.33h-0.755c-0.402,0-0.696-0.244-0.696-0.575
		c0-0.304,0.294-0.547,0.696-0.547L483.6,51.481L483.6,51.481z"/>
	<path class="st1" d="M505.756,75.398c0.413,0,0.713,0.24,0.713,0.547c0,0.334-0.3,0.575-0.713,0.575h-1.343v0.005h-5.653V73.63
		c-0.726,1.969-2.371,3.245-5.069,3.245c-3.492,0-6.893-2.411-6.893-8.925c0-6.494,3.374-8.908,6.856-8.908
		c2.677,0,4.377,1.23,5.106,3.272v-2.924h5.653v6.302v8.77c0,0.567,0.438,0.936,1.091,0.936L505.756,75.398L505.756,75.398z
		 M498.767,67.94c0-3.299-1.069-7.344-3.489-7.344c-1.656,0-2.609,1.807-2.609,7.354c0,5.493,0.953,7.372,2.609,7.372
		C497.698,75.322,498.767,71.217,498.767,67.94z"/>
	<path class="st1" d="M522.133,59.058c3.129,0,4.723,1.909,4.723,4.46c0,1.89-1.437,3.765-3.849,3.765
		c-1.573,0-2.671-1.014-2.671-2.245c0-1.894,2.401-2.014,2.401-3.19c0-0.656-0.601-1.167-1.742-1.167
		c-2.219,0-3.698,2.351-3.698,7.021v2.513v4.249c0,0.566,0.438,0.936,1.091,0.936h1.431c0.398,0,0.696,0.24,0.696,0.574
		c0,0.307-0.298,0.548-0.696,0.548h-9.518c-0.414,0-0.713-0.241-0.713-0.575c0-0.307,0.299-0.547,0.713-0.547h0.251
		c0.652,0,1.09-0.369,1.09-0.936v-4.249v-8.771c0-0.566-0.438-0.936-1.091-0.936H510.3c-0.413,0-0.714-0.241-0.714-0.548
		c0-0.334,0.301-0.575,0.714-0.575h6.332v4.011C517.629,60.158,519.698,59.058,522.133,59.058L522.133,59.058z"/>
	<path class="st1" d="M542.378,72.65c0.415,0,0.613,0.263,0.613,0.511c0,1.683-1.895,3.714-5.142,3.714
		c-2.704,0-5.618-1.306-5.618-4.779V60.508h-1.357c-0.398,0-0.696-0.241-0.696-0.575c0-0.307,0.298-0.549,0.696-0.549h0.474
		c2.872,0,5.115-1.954,5.176-5.324v-0.383c0-0.329,0.292-0.575,0.696-0.575c0.371,0,0.662,0.246,0.662,0.575v0.24v5.467h4.412
		c0.397,0,0.695,0.242,0.695,0.576c0,0.307-0.298,0.548-0.695,0.548h-4.412v11.588c0,2.002,0.748,2.704,2.031,2.704
		c0.884,0,1.479-0.484,1.833-1.622c0.123-0.319,0.347-0.525,0.63-0.525L542.378,72.65z"/>
	<path class="st1" d="M562.716,66.917c0,0.656-0.327,1.013-1.125,1.013h-9.737c0,5.086,0.729,7.551,4.073,7.551
		c2.879,0,4.523-2.359,5.224-4.231c0.168-0.428,0.437-0.512,0.704-0.512c0.438,0,0.56,0.277,0.554,0.536
		c-0.063,1.434-1.785,5.603-7.414,5.603c-5.315,0-8.961-3.363-8.961-8.952c0-5.483,3.391-8.887,8.669-8.887
		C559.984,59.037,562.716,61.962,562.716,66.917L562.716,66.917z M557.247,66.89c-0.011-5.146-0.625-6.802-2.553-6.802
		c-1.91,0-2.735,1.849-2.831,6.802H557.247z"/>
	<path class="st1" d="M575.301,75.397c0.413,0,0.714,0.241,0.714,0.548c0,0.334-0.301,0.575-0.714,0.575h-8.338
		c-0.414,0-0.713-0.241-0.713-0.575c0-0.307,0.299-0.548,0.713-0.548h0.251c0.652,0,1.091-0.368,1.091-0.936V59.651v-8.771
		c0-0.566-0.438-0.936-1.091-0.936h-0.251c-0.413,0-0.714-0.241-0.714-0.548c0-0.334,0.301-0.575,0.714-0.575h6.997v16.87v8.77
		c0,0.567,0.438,0.936,1.091,0.936h0.251H575.301z"/>
	<path class="st1" d="M588.215,75.398c0.413,0,0.714,0.24,0.714,0.547c0,0.334-0.301,0.575-0.714,0.575h-8.338
		c-0.414,0-0.713-0.241-0.713-0.575c0-0.307,0.299-0.547,0.713-0.547h0.251c0.652,0,1.091-0.369,1.091-0.936v-4.249v-8.771
		c0-0.566-0.438-0.936-1.091-0.936h-0.251c-0.413,0-0.714-0.241-0.714-0.548c0-0.334,0.301-0.575,0.714-0.575h6.997v10.829v4.248
		c0,0.567,0.438,0.936,1.091,0.936h0.251L588.215,75.398z M580.947,52.124c0-1.448,1.381-2.589,3.145-2.589
		c1.685,0,3.065,1.141,3.065,2.589c0,1.393-1.38,2.533-3.065,2.533C582.328,54.657,580.947,53.517,580.947,52.124z"/>
	<path class="st1" d="M600.751,59.998c0,4.54,6.846,5.917,6.846,11.103c0,3.714-4.035,5.774-8.413,5.774
		c-4.347,0-6.988-2.361-6.988-5.453c0-1.737,1.05-2.627,2.128-2.75l3.335-6.387c0.08-1.099,0.558-2.304,1.16-3.258
		c0.638-1.024,1.373-1.713,1.988-1.713c0.696,0,0.73,0.606,0.574,0.871C600.974,58.743,600.751,59.339,600.751,59.998
		L600.751,59.998z M602.328,72.238c0-2.764-3.246-4.628-4.333-7.652l-2.242,4.365c0.521,0.296,0.886,0.813,0.886,1.537
		c0,1.539-1.958,1.646-1.958,2.985c0,1.427,2.071,2.303,3.786,2.303C600.827,75.776,602.328,74.609,602.328,72.238z"/>
	<path class="st1" d="M622.983,72.65c0.415,0,0.613,0.263,0.613,0.511c0,1.683-1.895,3.714-5.142,3.714
		c-2.704,0-5.618-1.306-5.618-4.779V60.508h-1.357c-0.398,0-0.696-0.241-0.696-0.575c0-0.307,0.298-0.549,0.696-0.549h0.474
		c2.872,0,5.115-1.954,5.177-5.324v-0.383c0-0.329,0.292-0.575,0.696-0.575c0.371,0,0.662,0.246,0.662,0.575v0.24v5.467h4.412
		c0.397,0,0.695,0.242,0.695,0.576c0,0.307-0.298,0.548-0.695,0.548h-4.412v11.588c0,2.002,0.748,2.704,2.031,2.704
		c0.884,0,1.479-0.484,1.833-1.622c0.123-0.319,0.347-0.525,0.63-0.525L622.983,72.65z"/>
	<path class="st1" d="M643.321,66.917c0,0.656-0.327,1.013-1.125,1.013h-9.737c0,5.086,0.729,7.551,4.073,7.551
		c2.879,0,4.523-2.359,5.223-4.231c0.169-0.428,0.438-0.512,0.704-0.512c0.438,0,0.561,0.277,0.554,0.536
		c-0.063,1.434-1.785,5.603-7.414,5.603c-5.315,0-8.961-3.363-8.961-8.952c0-5.483,3.391-8.887,8.669-8.887
		C640.589,59.037,643.32,61.962,643.321,66.917L643.321,66.917z M637.852,66.89c-0.011-5.146-0.626-6.802-2.553-6.802
		c-1.91,0-2.735,1.849-2.831,6.802H637.852z"/>
	<path class="st1" d="M650.436,76.498c1.447,0,2.631,0.979,2.631,2.191c0,1.196-1.185,2.201-2.631,2.201
		c-1.466,0-2.681-1.005-2.681-2.201C647.755,77.478,648.97,76.498,650.436,76.498z M653.048,50.674c0,3.077-1.65,15.199-1.65,20.646
		c0,0.537-0.51,0.844-1.061,0.844c-0.507,0-1.058-0.307-1.058-0.844c0-5.447-1.502-17.531-1.502-20.646
		c0-1.318,1.138-2.308,2.632-2.308C651.829,48.366,653.048,49.355,653.048,50.674z"/>
</g>
</svg>