<!-- Generator: Adobe Illustrator 25.0.0, SVG Export Plug-In  -->
<svg version="1.1" xmlns="http://www.w3.org/2000/svg" xmlns:xlink="http://www.w3.org/1999/xlink" x="0px" y="0px"
	 width="2322.78px" height="249.843px" viewBox="0 0 2322.78 249.843"
	 style="overflow:visible;enable-background:new 0 0 2322.78 249.843;" xml:space="preserve">
<style type="text/css">
	.st0{fill:none;}
	.st1{fill:#FFFFFF;}
</style>
<defs>
</defs>
<g>
	<rect y="17.877" class="st0" width="2322.78" height="231.966"/>
	<path class="st1" d="M119.412,114.859c0,21.293-19.308,32.676-49.11,32.676H18.516c-1.891,0-3.254-1.127-3.254-2.69
		c0-1.436,1.364-2.563,3.254-2.563h2.345c4.168,0,6.816-2.643,6.853-5.478V41.065c-0.037-2.835-2.685-5.479-6.853-5.479h-2.345
		c-1.891,0-3.254-1.129-3.254-2.564c0-1.563,1.364-2.691,3.254-2.691h52.087c24.326,0,43.629,7.311,43.629,27.058
		c0,15.047-10.319,26.259-33.204,29.359C103.404,88.72,119.412,96.728,119.412,114.859z M64.784,35.587
		c-4.168,0-6.816,2.644-6.853,5.479v43.713h4.309c14.024,0,21.291-7.816,21.291-26.9c0-14.088-6.113-22.293-17.553-22.293
		L64.784,35.587z M88.644,115.249c0-15.554-10.669-24.955-24.586-24.955h-6.126v46.512c0.037,2.835,2.685,5.478,6.853,5.478h1.981
		C79.478,142.283,88.644,131.71,88.644,115.249z"/>
	<path class="st1" d="M196.049,65.793c14.645,0,22.104,8.936,22.104,20.876c0,8.844-6.724,17.62-18.013,17.62
		c-7.361,0-12.5-4.741-12.5-10.506c0-8.866,11.237-9.43,11.237-14.935c0-3.073-2.811-5.465-8.154-5.465
		c-10.383,0-17.31,11.002-17.31,32.869v11.762v19.89c0,2.652,2.048,4.379,5.106,4.379h6.699c1.863,0,3.256,1.128,3.256,2.691
		c0,1.435-1.394,2.562-3.256,2.562h-44.546c-1.938,0-3.338-1.128-3.338-2.691c0-1.435,1.4-2.562,3.338-2.562h1.177
		c3.052,0,5.104-1.727,5.104-4.379v-19.89V76.96c0-2.651-2.047-4.379-5.106-4.379h-1.176c-1.934,0-3.341-1.129-3.341-2.564
		c0-1.563,1.407-2.692,3.341-2.692h29.632v18.774c4.666-15.157,14.35-20.308,25.75-20.308L196.049,65.793z"/>
	<path class="st1" d="M323.09,142.283c1.934,0,3.34,1.128,3.34,2.562c0,1.563-1.407,2.691-3.34,2.691h-6.283v0.024h-26.458v-13.554
		c-3.396,9.213-11.095,15.19-23.726,15.19c-16.344,0-32.261-11.29-32.261-41.78c0-30.399,15.791-41.7,32.089-41.7
		c12.53,0,20.484,5.761,23.896,15.32V67.349h26.458v29.499v41.055c0,2.652,2.047,4.379,5.106,4.379h1.176L323.09,142.283z
		 M290.383,107.372c0-15.443-5.001-34.378-16.329-34.378c-7.75,0-12.211,8.457-12.211,34.426c0,25.713,4.461,34.508,12.211,34.508
		C285.383,141.928,290.383,122.712,290.383,107.372z"/>
	<path class="st1" d="M433.917,142.283c1.934,0,3.34,1.128,3.34,2.562c0,1.563-1.407,2.691-3.34,2.691h-38.4
		c-1.938,0-3.338-1.128-3.338-2.691c0-1.435,1.4-2.562,3.338-2.562h1.177c2.959,0,4.482-1.65,4.482-5.024V85.85
		c0-7.188-3.091-10.337-8.636-10.337c-7.681,0-15.425,8.473-15.425,26.271v35.476c0,3.374,1.519,5.024,4.485,5.024h1.176
		c1.934,0,3.341,1.128,3.341,2.562c0,1.563-1.407,2.691-3.341,2.691h-38.4c-1.938,0-3.338-1.128-3.338-2.691
		c0-1.435,1.4-2.562,3.338-2.562h1.176c3.053,0,5.107-1.727,5.107-4.379V76.96c0-2.651-2.048-4.379-5.107-4.379h-1.176
		c-1.934,0-3.341-1.129-3.341-2.564c0-1.563,1.407-2.692,3.341-2.692h31.184v15.738c4.913-11.189,14.698-17.375,27.565-17.375
		c14.304,0,24.513,6.94,24.513,20.582v51.633c0,2.652,2.047,4.379,5.106,4.379h1.177L433.917,142.283z"/>
	<path class="st1" d="M541.201,142.283c1.934,0,3.34,1.128,3.34,2.562c0,1.563-1.407,2.691-3.34,2.691h-6.29v0.025h-26.458v-13.555
		c-3.396,9.213-11.095,15.19-23.726,15.19c-16.344,0-32.261-11.29-32.261-41.78c0-30.399,15.791-41.7,32.089-41.7
		c12.53,0,20.484,5.761,23.896,15.32v-12.47V27.515c0-2.652-2.048-4.379-5.106-4.379h-1.177c-1.934,0-3.34-1.13-3.34-2.565
		c0-1.562,1.407-2.69,3.34-2.69h32.748v50.688v28.279v41.055c0,2.652,2.047,4.379,5.106,4.379h1.176L541.201,142.283z
		 M508.488,107.372c0-15.443-5.001-34.378-16.329-34.378c-7.75,0-12.213,8.457-12.213,34.426c0,25.713,4.463,34.508,12.213,34.508
		C503.487,141.928,508.488,122.712,508.488,107.372z"/>
	<path class="st1" d="M637.889,102.582c0,3.073-1.53,4.742-5.268,4.742h-45.572c0,23.808,3.409,35.345,19.064,35.345
		c13.477,0,21.168-11.047,24.447-19.81c0.789-2.003,2.045-2.396,3.295-2.396c2.047,0,2.622,1.3,2.592,2.513
		c-0.297,6.709-8.353,26.224-34.698,26.224c-24.877,0-41.943-15.742-41.943-41.906c0-25.667,15.873-41.601,40.573-41.601
		c24.717,0,37.505,13.694,37.505,36.889H637.889z M612.292,102.456c-0.054-24.095-2.93-31.844-11.949-31.844
		c-8.94,0-12.801,8.654-13.248,31.842L612.292,102.456z"/>
	<path class="st1" d="M747.318,142.283c1.934,0,3.34,1.128,3.34,2.562c0,1.563-1.407,2.691-3.34,2.691h-38.4
		c-1.938,0-3.338-1.128-3.338-2.691c0-1.435,1.4-2.562,3.338-2.562h1.177c2.959,0,4.482-1.65,4.482-5.024V85.85
		c0-7.188-3.091-10.337-8.636-10.337c-7.681,0-15.425,8.473-15.425,26.271v35.476c0,3.374,1.519,5.024,4.485,5.024h1.176
		c1.934,0,3.341,1.128,3.341,2.562c0,1.563-1.407,2.691-3.341,2.691h-38.4c-1.938,0-3.338-1.128-3.338-2.691
		c0-1.435,1.4-2.562,3.338-2.562h1.176c3.053,0,5.107-1.727,5.107-4.379V76.96c0-2.651-2.048-4.379-5.107-4.379h-1.176
		c-1.934,0-3.341-1.129-3.341-2.564c0-1.563,1.407-2.692,3.341-2.692h31.184v15.738c4.913-11.189,14.698-17.375,27.565-17.375
		c14.304,0,24.513,6.94,24.513,20.582v51.633c0,2.652,2.047,4.379,5.106,4.379h1.177L747.318,142.283z"/>
	<path class="st1" d="M825.022,65.659c16.343,0,32.261,11.29,32.261,41.78c0,30.399-15.791,41.7-32.089,41.7
		c-12.532,0-20.486-5.761-23.898-15.32v13.689h-18.103v0.024h-14.645c-1.938,0-3.339-1.127-3.339-2.69
		c0-1.436,1.4-2.563,3.339-2.563h1.177c3.052,0,5.106-1.727,5.106-4.379V96.847V68.567V27.513c0-2.652-2.048-4.379-5.106-4.379
		h-1.177c-1.934,0-3.341-1.13-3.341-2.564c0-1.563,1.407-2.691,3.341-2.691h32.747v50.689v12.284
		c3.396-9.213,11.096-15.19,23.727-15.19V65.659z M829.801,107.441c0-25.713-4.461-34.508-12.212-34.508
		c-11.327,0-16.328,19.216-16.328,34.556c0,15.443,5.001,34.378,16.328,34.378C825.341,141.867,829.801,133.41,829.801,107.441z"/>
	<path class="st1" d="M966.717,142.287c1.934,0,3.34,1.127,3.34,2.562c0,1.563-1.406,2.691-3.34,2.691h-32.748v-12.733
		c-5.273,9.221-14.379,14.267-25.999,14.267c-14.305,0-24.514-6.926-24.514-20.58v-10.476V76.964c0-2.652-2.048-4.379-5.106-4.379
		h-1.177c-1.934,0-3.34-1.13-3.34-2.564c0-1.563,1.406-2.693,3.34-2.693h32.748v31.511v30.074c0,7.188,3.091,10.337,8.636,10.337
		c7.565,0,15.191-8.219,15.421-25.468V96.85V76.96c0-2.651-2.048-4.379-5.106-4.379h-1.177c-1.934,0-3.34-1.129-3.34-2.564
		c0-1.563,1.406-2.692,3.34-2.692h32.747v50.688v19.89c0,2.652,2.048,4.379,5.107,4.379h1.176L966.717,142.287z"/>
	<path class="st1" d="M1043.543,65.793c14.644,0,22.104,8.936,22.104,20.876c0,8.844-6.724,17.62-18.013,17.62
		c-7.36,0-12.5-4.741-12.5-10.506c0-8.866,11.237-9.43,11.237-14.935c0-3.073-2.812-5.465-8.154-5.465
		c-10.383,0-17.31,11.002-17.31,32.869v11.762v19.89c0,2.652,2.048,4.379,5.106,4.379h6.698c1.863,0,3.257,1.128,3.257,2.691
		c0,1.435-1.394,2.562-3.257,2.562h-44.546c-1.938,0-3.338-1.128-3.338-2.691c0-1.435,1.4-2.562,3.338-2.562h1.177
		c3.053,0,5.104-1.727,5.104-4.379v-19.89V76.96c0-2.651-2.048-4.379-5.106-4.379h-1.177c-1.934,0-3.34-1.129-3.34-2.564
		c0-1.563,1.406-2.692,3.34-2.692h29.633v18.774c4.666-15.157,14.35-20.308,25.75-20.308L1043.543,65.793z"/>
	<path class="st1" d="M1164.285,147.559v13.239c0,25.202-19.001,36.598-45.159,36.598c-22.644,0-35.58-9.726-35.58-25.278
		c0-9.331,6.182-14.265,13.379-14.265c6.054,0,11.093,3.231,11.093,9.364c0,8.217-9.95,7.648-9.95,13.652
		c0,5.256,5.539,11.223,19.071,11.223c16.149,0,20.688-10.679,20.688-27.916v-30.146c-3.401,9.2-11.098,15.169-23.72,15.169
		c-16.344,0-32.261-11.29-32.261-41.78c0-30.399,15.79-41.7,32.089-41.7c12.529,0,20.484,5.761,23.896,15.32V67.349h26.458
		L1164.285,147.559z M1137.861,107.364c0-15.442-5.001-34.378-16.328-34.378c-7.75,0-12.214,8.458-12.214,34.427
		c0,25.712,4.464,34.507,12.214,34.507C1132.86,141.92,1137.861,122.705,1137.861,107.364z"/>
	<path class="st1" d="M1317.497,142.283c1.934,0,3.341,1.128,3.341,2.562c0,1.563-1.407,2.691-3.341,2.691h-6.283v0.024h-26.458
		v-13.554c-3.396,9.213-11.095,15.19-23.726,15.19c-16.344,0-32.261-11.29-32.261-41.78c0-30.399,15.79-41.7,32.089-41.7
		c12.529,0,20.484,5.761,23.896,15.32V67.349h26.458v29.499v41.055c0,2.652,2.048,4.379,5.106,4.379h1.177L1317.497,142.283z
		 M1284.791,107.372c0-15.443-5.002-34.378-16.329-34.378c-7.75,0-12.211,8.457-12.211,34.426c0,25.713,4.461,34.508,12.211,34.508
		C1279.789,141.928,1284.791,122.712,1284.791,107.372z"/>
	<path class="st1" d="M1428.324,142.283c1.934,0,3.341,1.128,3.341,2.562c0,1.563-1.407,2.691-3.341,2.691h-38.4
		c-1.938,0-3.338-1.128-3.338-2.691c0-1.435,1.399-2.562,3.338-2.562h1.177c2.96,0,4.482-1.65,4.482-5.024V85.85
		c0-7.188-3.091-10.337-8.636-10.337c-7.682,0-15.426,8.473-15.426,26.271v35.476c0,3.374,1.519,5.024,4.485,5.024h1.177
		c1.934,0,3.34,1.128,3.34,2.562c0,1.563-1.406,2.691-3.34,2.691h-38.4c-1.938,0-3.339-1.128-3.339-2.691
		c0-1.435,1.4-2.562,3.339-2.562h1.177c3.052,0,5.106-1.727,5.106-4.379V76.96c0-2.651-2.048-4.379-5.106-4.379h-1.177
		c-1.934,0-3.341-1.129-3.341-2.564c0-1.563,1.407-2.692,3.341-2.692h31.184v15.738c4.913-11.189,14.698-17.375,27.565-17.375
		c14.304,0,24.513,6.94,24.513,20.582v51.633c0,2.652,2.048,4.379,5.106,4.379h1.177L1428.324,142.283z"/>
	<path class="st1" d="M1577.553,142.283c1.934,0,3.341,1.128,3.341,2.562c0,1.563-1.407,2.691-3.341,2.691h-6.29v0.025h-26.457
		v-13.555c-3.396,9.213-11.096,15.19-23.727,15.19c-16.343,0-32.261-11.29-32.261-41.78c0-30.399,15.791-41.7,32.089-41.7
		c12.53,0,20.484,5.761,23.896,15.32v-12.47V27.515c0-2.652-2.047-4.379-5.106-4.379h-1.176c-1.935,0-3.341-1.13-3.341-2.565
		c0-1.562,1.406-2.69,3.341-2.69h32.747v50.688v28.279v41.055c0,2.652,2.048,4.379,5.106,4.379h1.177L1577.553,142.283z
		 M1544.84,107.372c0-15.443-5.001-34.378-16.328-34.378c-7.751,0-12.214,8.457-12.214,34.426c0,25.713,4.463,34.508,12.214,34.508
		C1539.839,141.928,1544.84,122.712,1544.84,107.372z"/>
	<path class="st1" d="M1674.242,102.582c0,3.073-1.529,4.742-5.269,4.742h-45.571c0,23.808,3.409,35.345,19.064,35.345
		c13.477,0,21.168-11.047,24.446-19.81c0.79-2.003,2.046-2.396,3.296-2.396c2.048,0,2.622,1.3,2.592,2.513
		c-0.297,6.709-8.353,26.224-34.698,26.224c-24.877,0-41.943-15.742-41.943-41.906c0-25.667,15.873-41.601,40.573-41.601
		c24.718,0,37.505,13.694,37.505,36.889H1674.242z M1648.644,102.456c-0.054-24.095-2.93-31.844-11.949-31.844
		c-8.939,0-12.801,8.654-13.248,31.842L1648.644,102.456z"/>
	<path class="st1" d="M1749.501,65.793c14.644,0,22.104,8.936,22.104,20.876c0,8.844-6.724,17.62-18.013,17.62
		c-7.36,0-12.5-4.741-12.5-10.506c0-8.866,11.237-9.43,11.237-14.935c0-3.073-2.812-5.465-8.154-5.465
		c-10.383,0-17.31,11.002-17.31,32.869v11.762v19.89c0,2.652,2.048,4.379,5.106,4.379h6.698c1.863,0,3.257,1.128,3.257,2.691
		c0,1.435-1.394,2.562-3.257,2.562h-44.546c-1.938,0-3.338-1.128-3.338-2.691c0-1.435,1.4-2.562,3.338-2.562h1.177
		c3.053,0,5.104-1.727,5.104-4.379v-19.89V76.96c0-2.651-2.048-4.379-5.106-4.379h-1.177c-1.934,0-3.34-1.129-3.34-2.564
		c0-1.563,1.406-2.692,3.34-2.692h29.633v18.774c4.666-15.157,14.35-20.308,25.75-20.308L1749.501,65.793z"/>
	<path class="st1" d="M1949.056,142.278c1.891,0,3.257,1.127,3.257,2.562c0,1.563-1.366,2.691-3.257,2.691h-9.191v0.005h-39.416
		c-1.891,0-3.256-1.128-3.256-2.691c0-1.435,1.365-2.562,3.256-2.562h2.345c4.087,0,6.712-2.538,6.85-5.309V88.546h-37.979v48.489
		c0.172,2.746,2.787,5.246,6.842,5.246h2.345c1.891,0,3.257,1.128,3.257,2.563c0,1.563-1.366,2.69-3.257,2.69h-48.604
		c-1.891,0-3.255-1.127-3.255-2.69c0-1.436,1.364-2.563,3.255-2.563h2.345c4.055,0,6.67-2.5,6.842-5.246V40.834
		c-0.172-2.746-2.787-5.247-6.842-5.247h-2.345c-1.891,0-3.255-1.129-3.255-2.564c0-1.563,1.364-2.691,3.255-2.691h48.604
		c1.891,0,3.257,1.128,3.257,2.691c0,1.436-1.366,2.564-3.257,2.564h-2.345c-4.055,0-6.67,2.501-6.842,5.247v42.454h37.979V40.895
		c-0.138-2.771-2.763-5.31-6.85-5.31h-2.345c-1.891,0-3.256-1.129-3.256-2.564c0-1.563,1.365-2.69,3.256-2.69h9.191v-0.006h39.416
		c1.891,0,3.257,1.128,3.257,2.691c0,1.435-1.366,2.564-3.257,2.564h-2.345c-4.087,0-6.711,2.538-6.849,5.309v96.078
		c0.138,2.771,2.762,5.31,6.849,5.31h2.345V142.278z"/>
	<path class="st1" d="M2057.657,142.283c1.934,0,3.341,1.128,3.341,2.562c0,1.563-1.407,2.691-3.341,2.691h-6.283v0.024h-26.458
		v-13.554c-3.396,9.213-11.095,15.19-23.726,15.19c-16.344,0-32.261-11.29-32.261-41.78c0-30.399,15.79-41.7,32.089-41.7
		c12.529,0,20.484,5.761,23.896,15.32V67.349h26.458v29.499v41.055c0,2.652,2.048,4.379,5.106,4.379h1.177L2057.657,142.283z
		 M2024.951,107.372c0-15.443-5.002-34.378-16.329-34.378c-7.75,0-12.211,8.457-12.211,34.426c0,25.713,4.461,34.508,12.211,34.508
		C2019.949,141.928,2024.951,122.712,2024.951,107.372z"/>
	<path class="st1" d="M2152.659,67.316c1.88,0,3.257,1.139,3.257,2.693c0,1.421-1.377,2.564-3.257,2.564h-0.985
		c-3.463,0-5.312,1.483-6.578,4.938l-25.827,70.168h-9.516l-28.084-70.216c-1.443-3.657-2.949-4.888-6.621-4.888h-0.426
		c-1.88,0-3.257-1.144-3.257-2.693c0-1.424,1.377-2.562,3.257-2.562h40.996c1.88,0,3.257,1.139,3.257,2.692
		c0,1.422-1.377,2.565-3.257,2.565h-2.084c-3.539,0-5.399,2.342-4.421,4.937l14.584,38.488l13.913-38.488
		c1.021-2.853-0.643-4.936-4.788-4.936h-1.962c-1.88,0-3.257-1.144-3.257-2.692c0-1.425,1.377-2.562,3.257-2.562h21.799V67.316z"/>
	<path class="st1" d="M2246.41,102.582c0,3.073-1.529,4.742-5.269,4.742h-45.571c0,23.808,3.409,35.345,19.064,35.345
		c13.477,0,21.168-11.047,24.446-19.81c0.79-2.003,2.046-2.396,3.296-2.396c2.048,0,2.622,1.3,2.592,2.513
		c-0.297,6.709-8.353,26.224-34.698,26.224c-24.877,0-41.943-15.742-41.943-41.906c0-25.667,15.873-41.601,40.573-41.601
		c24.718,0,37.505,13.694,37.505,36.889H2246.41z M2220.812,102.456c-0.054-24.095-2.93-31.844-11.949-31.844
		c-8.939,0-12.801,8.654-13.248,31.842L2220.812,102.456z"/>
	<path class="st1" d="M2305.316,142.281c1.934,0,3.341,1.128,3.341,2.563c0,1.563-1.407,2.69-3.341,2.69h-39.024
		c-1.938,0-3.338-1.127-3.338-2.69c0-1.436,1.4-2.563,3.338-2.563h1.177c3.053,0,5.106-1.727,5.106-4.379V68.568V27.515
		c0-2.652-2.047-4.379-5.106-4.379h-1.177c-1.934,0-3.34-1.13-3.34-2.565c0-1.562,1.406-2.69,3.34-2.69h32.748v78.968v41.055
		c0,2.652,2.048,4.379,5.106,4.379h1.177H2305.316z"/>
</g>
</svg>