<!-- Generator: Adobe Illustrator 25.0.0, SVG Export Plug-In  -->
<svg version="1.1" xmlns="http://www.w3.org/2000/svg" xmlns:xlink="http://www.w3.org/1999/xlink" x="0px" y="0px"
	 width="107.386px" height="79.989px" viewBox="0 0 107.386 79.989"
	 style="overflow:visible;enable-background:new 0 0 107.386 79.989;" xml:space="preserve">
<style type="text/css">
	.st0{fill:#53B78D;}
	.st1{fill:none;}
	.st2{fill:#FFFFFF;}
	.st3{fill:#010202;}
	.st4{opacity:0.46;}
	.st5{font-family:'IsabelCondensed-Bold';}
	.st6{font-size:18px;}
	.st7{letter-spacing:-1;}
	.st8{font-size:12px;}
	.st9{font-size:8px;}
</style>
<defs>
</defs>
<rect class="st0" width="107.386" height="73.17"/>
<g>
	<rect x="9.868" y="34.888" class="st1" width="92.195" height="15.65"/>
	<path class="st2" d="M33.655,44.625c0,2.331-1.557,3.545-3.464,3.545c-1.993,0-2.819-1.418-2.819-2.921
		c0-1.023,0.652-1.484,1.23-1.484c0.541,0,1.02,0.357,1.02,1.021c0,1.007-1.055,0.938-1.055,1.688c0,0.561,0.443,1.116,1.148,1.116
		c0.875,0,1.395-0.774,1.395-2.964c0-2.133-0.517-2.609-1.167-2.609H29.88c-0.168,0-0.275-0.113-0.275-0.278
		c0-0.161,0.088-0.256,0.277-0.431c0.555-0.504,1.214-1.106,1.793-1.8c0.328-0.398,0.624-0.817,0.862-1.273
		c-0.326,0.293-0.69,0.44-1.203,0.44c-0.744,0-1.625-0.41-2.341-0.41c-0.589,0-1.005,0.471-1.005,1.241
		c0,0.158-0.125,0.26-0.296,0.26c-0.156,0-0.281-0.114-0.281-0.272v-0.724c0-2.114,0.831-2.766,1.985-2.766
		c1.282,0,2.099,0.774,2.843,0.774c0.847,0,0.548-0.824,1.051-0.824c0.156,0,0.281,0.114,0.281,0.277v0.242
		c0,2.186-1.875,3.897-3.074,5.038C32.799,41.525,33.655,43.124,33.655,44.625z"/>
	<path class="st2" d="M35.456,42.049c0-3.955,1.293-6.085,3.53-6.085c2.236,0,3.528,2.13,3.528,6.085
		c0,3.965-1.292,6.144-3.528,6.144C36.75,48.192,35.456,46.014,35.456,42.049z M39.79,42.049c0-4.574-0.186-5.569-0.803-5.569
		c-0.625,0-0.81,0.995-0.81,5.569c0,4.586,0.185,5.627,0.81,5.627C39.604,47.676,39.79,46.635,39.79,42.049z"/>
	<path class="st2" d="M59.733,36.144c0.157,0,0.272,0.115,0.272,0.272c0,0.144-0.115,0.26-0.272,0.26h-0.276
		c-0.264,0-0.521,0.161-0.632,0.63l-2.557,10.784H55.43L53.561,40.7l-1.937,7.391h-0.847l-2.684-10.789
		c-0.119-0.477-0.403-0.625-0.563-0.625h-0.214c-0.158,0-0.273-0.115-0.273-0.272c0-0.144,0.115-0.259,0.273-0.259h4.152
		c0.157,0,0.272,0.115,0.272,0.272c0,0.144-0.115,0.26-0.272,0.26h-0.337c-0.325,0-0.501,0.264-0.411,0.63l1.51,6.221l1.94-7.383
		h0.721l1.918,7.092l1.4-5.93c0.087-0.365-0.08-0.63-0.423-0.63h-0.296c-0.157,0-0.272-0.116-0.272-0.273
		c0-0.144,0.115-0.259,0.272-0.259L59.733,36.144L59.733,36.144z"/>
	<path class="st2" d="M67.986,47.751c0,0.145-0.139,0.26-0.29,0.26h-4.017c-0.15,0-0.29-0.115-0.29-0.26
		c0-0.156,0.14-0.272,0.29-0.272h0.291c0.282,0,0.446-0.273,0.347-0.63l-0.685-2.45h-2.523l-0.716,2.45
		c-0.102,0.348,0.052,0.63,0.339,0.63h0.249c0.151,0,0.291,0.116,0.291,0.272c0,0.145-0.14,0.26-0.291,0.26h-1.874
		c-0.151,0-0.291-0.115-0.291-0.26c0-0.156,0.14-0.272,0.291-0.272h0.068c0.327,0,0.485-0.234,0.603-0.63l3.176-10.797h0.85
		l3.185,10.814c0.103,0.353,0.291,0.612,0.648,0.612h0.06C67.847,47.478,67.986,47.595,67.986,47.751z M63.488,43.88l-1.089-3.899
		L61.26,43.88H63.488z"/>
	<path class="st2" d="M76.058,39.293c0,0.156-0.114,0.272-0.26,0.272c-0.158,0-0.272-0.116-0.272-0.272v-0.155
		c0-1.652-0.588-2.46-1.646-2.46H73.78c-0.352,0-0.574,0.271-0.574,0.561v9.68c0,0.29,0.223,0.561,0.574,0.561h0.196
		c0.158,0,0.272,0.114,0.272,0.26c0,0.158-0.114,0.272-0.272,0.272h-4.069c-0.158,0-0.272-0.114-0.272-0.272
		c0-0.146,0.114-0.26,0.272-0.26h0.196c0.352,0,0.573-0.271,0.573-0.561v-9.68c0-0.289-0.222-0.561-0.573-0.561h-0.138
		c-1.108,0-1.625,0.896-1.636,2.409v0.199c0,0.156-0.114,0.272-0.26,0.272c-0.158,0-0.272-0.116-0.272-0.272v-0.149v-2.991h8.261
		v2.495V39.293z"/>
	<path class="st2" d="M85.22,39.293c0,0.156-0.114,0.272-0.26,0.272c-0.158,0-0.272-0.116-0.272-0.272v-0.155
		c0-1.652-0.588-2.46-1.646-2.46h-0.101c-0.352,0-0.574,0.271-0.574,0.561v9.68c0,0.29,0.223,0.561,0.574,0.561h0.196
		c0.158,0,0.272,0.114,0.272,0.26c0,0.158-0.114,0.272-0.272,0.272h-4.069c-0.158,0-0.272-0.114-0.272-0.272
		c0-0.146,0.114-0.26,0.272-0.26h0.196c0.352,0,0.573-0.271,0.573-0.561v-9.68c0-0.289-0.222-0.561-0.573-0.561h-0.138
		c-1.108,0-1.625,0.896-1.636,2.409v0.199c0,0.156-0.114,0.272-0.26,0.272c-0.158,0-0.272-0.116-0.272-0.272v-0.149v-2.991h8.261
		v2.495V39.293z"/>
</g>
<g>
	<rect x="10.412" y="50.313" class="st1" width="92.195" height="15.65"/>
	<path class="st2" d="M29.951,59.179c-2.013,0-2.945-1.727-2.945-4.064c0-2.681,1.133-4.085,2.954-4.085
		c1.5,0,2.167,0.896,2.167,1.993c0,0.719-0.411,1.014-0.802,1.014c-0.368,0-0.711-0.249-0.711-0.68c0-0.644,0.737-0.601,0.737-1.106
		c0-0.451-0.433-0.825-1.111-0.825c-0.901,0-1.519,0.819-1.519,3.689c0,2.592,0.514,3.505,1.471,3.505
		c0.803,0,1.226-0.505,1.451-1.048c0.106-0.218,0.174-0.28,0.291-0.28c0.08,0,0.138,0.051,0.135,0.153
		c-0.008,0.152-0.067,0.354-0.183,0.579C31.608,58.572,31.043,59.18,29.951,59.179L29.951,59.179z"/>
	<path class="st2" d="M39.297,55.09c0,2.448-1.063,4.083-2.899,4.083c-1.836,0-2.9-1.635-2.9-4.083c0-2.449,1.064-4.054,2.9-4.054
		C38.233,51.036,39.297,52.641,39.297,55.09z M37.578,55.09c0-2.544-0.266-3.692-1.18-3.692c-0.915,0-1.181,1.148-1.181,3.692
		s0.266,3.722,1.181,3.722C37.312,58.812,37.578,57.634,37.578,55.09z"/>
	<path class="st2" d="M48.131,51.157c0.104,0,0.181,0.077,0.181,0.182c0,0.096-0.076,0.173-0.181,0.173h-0.185
		c-0.176,0-0.347,0.107-0.421,0.42l-1.703,7.183h-0.558l-1.245-4.922l-1.29,4.922h-0.564l-1.787-7.186
		c-0.079-0.318-0.269-0.417-0.375-0.417H39.86c-0.105,0-0.182-0.077-0.182-0.182c0-0.096,0.077-0.172,0.182-0.172h2.766
		c0.105,0,0.182,0.076,0.182,0.181c0,0.097-0.077,0.174-0.182,0.174h-0.225c-0.217,0-0.333,0.175-0.273,0.419l1.005,4.145
		l1.292-4.918h0.48l1.278,4.724l0.933-3.95c0.058-0.243-0.053-0.419-0.282-0.419h-0.196c-0.105,0-0.182-0.077-0.182-0.182
		c0-0.097,0.076-0.173,0.182-0.173L48.131,51.157L48.131,51.157z"/>
	<path class="st2" d="M54.501,55.09c0,2.448-1.063,4.083-2.898,4.083c-1.836,0-2.9-1.635-2.9-4.083c0-2.449,1.064-4.054,2.9-4.054
		C53.438,51.036,54.501,52.641,54.501,55.09z M52.782,55.09c0-2.544-0.266-3.692-1.18-3.692c-0.916,0-1.182,1.148-1.182,3.692
		s0.266,3.722,1.182,3.722C52.517,58.812,52.782,57.634,52.782,55.09z"/>
	<path class="st2" d="M61.615,58.504c0.086,0,0.137,0.066,0.137,0.146c0,0.26-0.426,0.52-1.012,0.52
		c-2.601,0-0.715-3.771-2.673-3.756h-0.101v2.92c0,0.192,0.147,0.373,0.382,0.373h0.131c0.105,0,0.182,0.076,0.182,0.173
		c0,0.105-0.076,0.182-0.182,0.182h-2.711c-0.105,0-0.181-0.076-0.181-0.182c0-0.097,0.075-0.173,0.181-0.173H55.9
		c0.234,0,0.383-0.181,0.383-0.373v-6.448c0-0.192-0.148-0.373-0.383-0.373h-0.131c-0.105,0-0.181-0.076-0.181-0.174
		c0-0.104,0.075-0.181,0.181-0.181h2.718c1.556,0,2.562,0.718,2.562,1.989c0,1.04-0.506,1.782-1.712,2.042
		c2.248,0.536,1.164,3.484,1.924,3.484C61.457,58.673,61.491,58.503,61.615,58.504L61.615,58.504z M58.228,55.056
		c0.842,0,1.098-0.741,1.098-1.908s-0.386-1.635-0.949-1.635h-0.027c-0.234,0-0.382,0.181-0.382,0.373v3.17H58.228z"/>
	<path class="st2" d="M65.417,58.879c0,0.105-0.076,0.182-0.182,0.182h-2.711c-0.105,0-0.182-0.076-0.182-0.182
		c0-0.097,0.076-0.173,0.182-0.173h0.131c0.234,0,0.382-0.181,0.382-0.373v-6.448c0-0.192-0.147-0.373-0.382-0.373h-0.131
		c-0.105,0-0.182-0.076-0.182-0.174c0-0.104,0.076-0.181,0.182-0.181h2.711c0.105,0,0.182,0.076,0.182,0.181
		c0,0.098-0.076,0.174-0.182,0.174h-0.131c-0.234,0-0.383,0.181-0.383,0.373v6.448c0,0.192,0.148,0.373,0.383,0.373h0.131
		C65.341,58.706,65.417,58.783,65.417,58.879z M68.951,58.888c0,0.097-0.077,0.173-0.182,0.173h-2.709
		c-0.104,0-0.181-0.076-0.181-0.182c0-0.097,0.077-0.173,0.182-0.173h0.235c0.199,0,0.253-0.183,0.156-0.389l-1.524-3.182
		l2.49-3.269c0.122-0.157,0.054-0.355-0.15-0.355h-0.195c-0.104,0-0.182-0.076-0.182-0.182c0-0.097,0.078-0.173,0.182-0.173h1.555
		c0.104,0,0.182,0.076,0.182,0.181c0,0.098-0.078,0.174-0.182,0.174h-0.114c-0.21,0-0.376,0.064-0.601,0.355l-1.704,2.234l2.1,4.329
		c0.091,0.188,0.2,0.275,0.376,0.275h0.085C68.874,58.706,68.951,58.783,68.951,58.888z"/>
	<path class="st2" d="M72.736,58.879c0,0.105-0.076,0.182-0.182,0.182h-2.711c-0.105,0-0.182-0.076-0.182-0.182
		c0-0.097,0.076-0.173,0.182-0.173h0.131c0.234,0,0.382-0.181,0.382-0.373v-6.448c0-0.192-0.147-0.373-0.382-0.373h-0.131
		c-0.105,0-0.182-0.076-0.182-0.174c0-0.104,0.076-0.181,0.182-0.181h2.711c0.105,0,0.182,0.076,0.182,0.181
		c0,0.098-0.076,0.174-0.182,0.174h-0.131c-0.234,0-0.383,0.181-0.383,0.373v6.448c0,0.192,0.148,0.373,0.383,0.373h0.131
		C72.66,58.706,72.736,58.783,72.736,58.879z"/>
	<path class="st2" d="M79.258,51.158c0.108,0,0.185,0.076,0.185,0.173c0,0.105-0.076,0.182-0.185,0.182h-0.105
		c-0.26,0-0.378,0.181-0.378,0.373v2.895v4.281h-0.809l-3.249-5.862v2.003v0.435v2.699c0,0.191,0.145,0.371,0.377,0.371h0.105
		c0.108,0,0.185,0.076,0.185,0.182c0,0.097-0.076,0.173-0.185,0.173h-1.393c-0.107,0-0.184-0.076-0.184-0.173
		c0-0.105,0.076-0.182,0.184-0.182h0.105c0.259,0,0.378-0.179,0.378-0.371v-6.45c0-0.192-0.146-0.373-0.379-0.373h-0.105
		c-0.107,0-0.184-0.076-0.184-0.182c0-0.097,0.076-0.173,0.184-0.173h1.532l3.01,5.432v-1.388v-3.316
		c0-0.192-0.146-0.373-0.379-0.373h-0.105c-0.108,0-0.185-0.076-0.185-0.182c0-0.097,0.076-0.173,0.185-0.173h1.393H79.258z"/>
	<path class="st2" d="M85.792,58.435c-0.425,0.313-1.375,0.738-2.345,0.738c-1.966,0-2.993-1.544-2.993-4.058
		c0-2.619,1.273-4.079,3.148-4.079c1.38,0,2.136,0.896,2.136,1.993c0,0.719-0.41,1.015-0.802,1.015c-0.367,0-0.711-0.25-0.711-0.681
		c0-0.644,0.712-0.61,0.712-1.116c0-0.461-0.497-0.814-1.142-0.814c-0.863,0-1.627,0.783-1.627,3.683
		c0,2.909,0.691,3.603,1.48,3.603c0.228,0,0.48-0.063,0.621-0.127v-2.406c0-0.192-0.145-0.373-0.371-0.373h-0.317
		c-0.108,0-0.187-0.076-0.187-0.173c0-0.105,0.078-0.182,0.187-0.182h2.211L85.792,58.435L85.792,58.435z"/>
</g>
<g>
	<rect x="11.356" y="64.339" class="st1" width="92.195" height="15.65"/>
	<path class="st3" d="M36.795,68.702c0,0.957-0.718,1.469-1.826,1.469h-1.925c-0.07,0-0.121-0.051-0.121-0.121
		c0-0.064,0.051-0.115,0.121-0.115h0.087c0.155,0,0.253-0.119,0.254-0.246v-4.304c-0.001-0.128-0.1-0.247-0.254-0.247h-0.087
		c-0.07,0-0.121-0.051-0.121-0.115c0-0.07,0.051-0.12,0.121-0.12h1.936c0.904,0,1.622,0.328,1.622,1.216
		c0,0.677-0.384,1.181-1.234,1.32C36.199,67.526,36.795,67.887,36.795,68.702z M34.764,65.138c-0.155,0-0.253,0.119-0.254,0.247
		v1.965h0.16c0.521,0,0.792-0.352,0.792-1.209c0-0.634-0.228-1.003-0.653-1.003H34.764z M35.651,68.72
		c0-0.699-0.396-1.122-0.914-1.122h-0.228v2.091c0.001,0.127,0.1,0.246,0.254,0.246h0.074C35.31,69.934,35.651,69.459,35.651,68.72z
		"/>
	<path class="st3" d="M41.478,69.8c0.057,0,0.091,0.044,0.091,0.097c0,0.174-0.284,0.347-0.674,0.347
		c-1.734,0-0.477-2.515-1.782-2.504h-0.067v1.946c0,0.129,0.099,0.249,0.255,0.249h0.087c0.07,0,0.121,0.051,0.121,0.115
		c0,0.07-0.051,0.121-0.121,0.121H37.58c-0.07,0-0.121-0.051-0.121-0.121c0-0.064,0.051-0.115,0.121-0.115h0.087
		c0.156,0,0.254-0.12,0.254-0.249v-4.299c0-0.128-0.099-0.249-0.254-0.249H37.58c-0.07,0-0.121-0.051-0.121-0.115
		c0-0.07,0.051-0.121,0.121-0.121h1.812c1.037,0,1.708,0.479,1.708,1.326c0,0.694-0.337,1.188-1.142,1.361
		c1.499,0.358,0.776,2.323,1.283,2.323C41.373,69.912,41.395,69.799,41.478,69.8L41.478,69.8z M39.219,67.501
		c0.562,0,0.732-0.494,0.732-1.272c0-0.777-0.257-1.09-0.633-1.09H39.3c-0.156,0-0.255,0.12-0.255,0.249v2.113H39.219z"/>
	<path class="st3" d="M45.853,70.056c0,0.064-0.062,0.115-0.129,0.115h-1.784c-0.067,0-0.129-0.051-0.129-0.115
		c0-0.069,0.062-0.121,0.129-0.121h0.129c0.125,0,0.198-0.122,0.154-0.28l-0.304-1.088h-1.121l-0.318,1.088
		c-0.045,0.154,0.023,0.28,0.151,0.28h0.111c0.067,0,0.129,0.052,0.129,0.121c0,0.064-0.062,0.115-0.129,0.115H41.91
		c-0.067,0-0.129-0.051-0.129-0.115c0-0.069,0.062-0.121,0.129-0.121h0.03c0.146,0,0.216-0.104,0.268-0.28l1.411-4.794h0.376
		l1.415,4.803c0.045,0.156,0.129,0.271,0.288,0.271h0.026C45.792,69.934,45.853,69.986,45.853,70.056z M43.856,68.336l-0.483-1.731
		l-0.506,1.731H43.856z"/>
	<path class="st3" d="M50.016,64.902c0.072,0,0.123,0.051,0.123,0.115c0,0.07-0.051,0.121-0.123,0.121h-0.07
		c-0.173,0-0.252,0.12-0.252,0.248v1.93v2.854h-0.539l-2.166-3.908v1.335v0.29v1.8c0,0.128,0.097,0.247,0.252,0.247h0.07
		c0.072,0,0.122,0.051,0.122,0.121c0,0.064-0.05,0.115-0.122,0.115h-0.929c-0.072,0-0.123-0.051-0.123-0.115
		c0-0.07,0.05-0.121,0.123-0.121h0.07c0.172,0,0.252-0.119,0.252-0.247v-4.301c0-0.128-0.097-0.249-0.252-0.249h-0.07
		c-0.072,0-0.123-0.051-0.123-0.121c0-0.064,0.051-0.115,0.123-0.115h1.021l2.007,3.622v-0.926v-2.211
		c0-0.128-0.097-0.249-0.253-0.249h-0.07c-0.072,0-0.123-0.051-0.123-0.121c0-0.064,0.051-0.115,0.123-0.115L50.016,64.902
		L50.016,64.902z"/>
	<path class="st3" d="M54.9,67.5c0,1.773-1.021,2.671-2.296,2.671h-1.761c-0.07,0-0.121-0.051-0.121-0.121
		c0-0.064,0.051-0.115,0.121-0.115h0.088c0.155,0,0.254-0.12,0.254-0.249v-4.299c0-0.128-0.099-0.249-0.254-0.249h-0.088
		c-0.07,0-0.121-0.051-0.121-0.115c0-0.07,0.051-0.121,0.121-0.121h1.761C53.851,64.901,54.9,65.649,54.9,67.5z M53.756,67.5
		c0-1.628-0.431-2.362-1.151-2.362h-0.047c-0.127,0-0.249,0.097-0.249,0.249v4.299c0,0.141,0.107,0.249,0.249,0.249h0.046
		C53.309,69.934,53.756,69.161,53.756,67.5z"/>
	<path class="st3" d="M59.068,68.794v1.377h-3.319c-0.07,0-0.121-0.051-0.121-0.121c0-0.064,0.051-0.115,0.121-0.115h0.087
		c0.156,0,0.255-0.12,0.255-0.249v-4.299c0-0.128-0.099-0.249-0.255-0.249h-0.087c-0.07,0-0.121-0.051-0.121-0.115
		c0-0.07,0.051-0.121,0.121-0.121h3.316v1.328v0.067c0,0.069-0.051,0.121-0.121,0.121c-0.064,0-0.115-0.052-0.115-0.121v-0.089
		c-0.005-0.672-0.234-1.07-0.727-1.07h-0.634c-0.156,0-0.255,0.121-0.255,0.249v1.924h0.331c0.421,0,0.568-0.22,0.568-0.604v-0.151
		c0-0.064,0.057-0.121,0.121-0.121s0.121,0.057,0.121,0.121v1.747c0,0.064-0.057,0.121-0.121,0.121s-0.121-0.051-0.121-0.139v-0.153
		c0-0.353-0.137-0.585-0.568-0.585h-0.331v2.139c0,0.129,0.099,0.249,0.255,0.249h0.524c0.624,0,0.839-0.363,0.839-1.049v-0.092
		c0-0.069,0.051-0.121,0.121-0.121C59.017,68.673,59.068,68.724,59.068,68.794z"/>
	<path class="st3" d="M63.632,64.902c0.072,0,0.123,0.051,0.123,0.115c0,0.07-0.051,0.121-0.123,0.121h-0.07
		c-0.173,0-0.253,0.12-0.253,0.248v1.93v2.854H62.77l-2.165-3.908v1.335v0.29v1.8c0,0.128,0.096,0.247,0.251,0.247h0.07
		c0.072,0,0.123,0.051,0.123,0.121c0,0.064-0.051,0.115-0.123,0.115h-0.929c-0.071,0-0.122-0.051-0.122-0.115
		c0-0.07,0.051-0.121,0.122-0.121h0.071c0.172,0,0.251-0.119,0.251-0.247v-4.301c0-0.128-0.097-0.249-0.252-0.249h-0.07
		c-0.072,0-0.123-0.051-0.123-0.121c0-0.064,0.051-0.115,0.123-0.115h1.021l2.007,3.622v-0.926v-2.211
		c0-0.128-0.097-0.249-0.252-0.249h-0.07c-0.072,0-0.123-0.051-0.123-0.121c0-0.064,0.051-0.115,0.123-0.115h0.928L63.632,64.902z"
		/>
	<path class="st3" d="M68.21,68.702c0,0.957-0.718,1.469-1.825,1.469H64.46c-0.07,0-0.121-0.051-0.121-0.121
		c0-0.064,0.051-0.115,0.121-0.115h0.087c0.155,0,0.253-0.119,0.255-0.246v-4.304c-0.002-0.128-0.1-0.247-0.255-0.247H64.46
		c-0.07,0-0.121-0.051-0.121-0.115c0-0.07,0.051-0.12,0.121-0.12h1.936c0.904,0,1.622,0.328,1.622,1.216
		c0,0.677-0.384,1.181-1.234,1.32C67.615,67.526,68.21,67.887,68.21,68.702z M66.18,65.138c-0.155,0-0.254,0.119-0.255,0.247v1.965
		h0.16c0.521,0,0.791-0.352,0.791-1.209c0-0.634-0.227-1.003-0.652-1.003H66.18z M67.067,68.72c0-0.699-0.396-1.122-0.914-1.122
		h-0.228v2.091c0.001,0.127,0.1,0.246,0.255,0.246h0.073C66.726,69.934,67.067,69.459,67.067,68.72z"/>
	<path class="st3" d="M73.018,65.016c0,0.07-0.05,0.121-0.122,0.121h-0.07c-0.156,0-0.253,0.121-0.253,0.249v2.211v1.027
		c0,0.979-0.506,1.62-1.526,1.62c-0.994,0-1.727-0.438-1.727-1.643v-1.229v-1.986c0-0.128-0.099-0.249-0.255-0.249h-0.069
		c-0.07,0-0.121-0.051-0.121-0.115c0-0.07,0.051-0.121,0.121-0.121h1.771c0.07,0,0.121,0.051,0.121,0.121
		c0,0.064-0.051,0.115-0.121,0.115h-0.069c-0.156,0-0.255,0.121-0.255,0.249v0.754v2.486c0,0.884,0.354,1.251,0.922,1.251
		c0.586,0,0.926-0.44,0.926-1.251v-3.24c0-0.128-0.079-0.249-0.252-0.249h-0.071c-0.071,0-0.122-0.051-0.122-0.121
		c0-0.064,0.051-0.115,0.122-0.115h0.929C72.968,64.901,73.018,64.952,73.018,65.016z"/>
	<path class="st3" d="M77.629,69.8c0.057,0,0.091,0.044,0.091,0.097c0,0.174-0.284,0.347-0.675,0.347
		c-1.733,0-0.477-2.515-1.781-2.504h-0.067v1.946c0,0.129,0.099,0.249,0.255,0.249h0.087c0.07,0,0.121,0.051,0.121,0.115
		c0,0.07-0.051,0.121-0.121,0.121h-1.807c-0.07,0-0.121-0.051-0.121-0.121c0-0.064,0.051-0.115,0.121-0.115h0.087
		c0.156,0,0.255-0.12,0.255-0.249v-4.299c0-0.128-0.099-0.249-0.255-0.249h-0.087c-0.07,0-0.121-0.051-0.121-0.115
		c0-0.07,0.051-0.121,0.121-0.121h1.812c1.037,0,1.708,0.479,1.708,1.326c0,0.694-0.337,1.188-1.142,1.361
		c1.499,0.358,0.776,2.323,1.283,2.323C77.524,69.912,77.546,69.799,77.629,69.8L77.629,69.8z M75.37,67.501
		c0.562,0,0.732-0.494,0.732-1.272c0-0.777-0.258-1.09-0.634-1.09h-0.018c-0.156,0-0.255,0.12-0.255,0.249v2.113H75.37z"/>
	<path class="st3" d="M81.698,69.754c-0.284,0.209-0.917,0.492-1.563,0.492c-1.311,0-1.995-1.029-1.995-2.706
		c0-1.746,0.849-2.719,2.099-2.719c0.92,0,1.424,0.597,1.424,1.329c0,0.479-0.273,0.676-0.534,0.676
		c-0.245,0-0.475-0.166-0.475-0.453c0-0.43,0.475-0.407,0.475-0.744c0-0.308-0.331-0.544-0.761-0.544
		c-0.576,0-1.084,0.522-1.084,2.455c0,1.94,0.46,2.402,0.986,2.402c0.151,0,0.32-0.042,0.414-0.084v-1.604
		c0-0.129-0.096-0.249-0.248-0.249h-0.211c-0.072,0-0.124-0.051-0.124-0.115c0-0.07,0.052-0.121,0.124-0.121h1.474V69.754
		L81.698,69.754z"/>
</g>
<path class="st4" d="M61.058,27.502c0.257,0.272,0.192,0.626,0.108,1.078c-0.096,0.515-0.128,1.128-0.025,1.615
	c0.206,0.971,0.2,1.176-0.865,1.418c-0.165,0.038-0.315,0.191-0.433,0.319c-1.484,1.613-4.736,1.447-5.653-0.12
	c-0.063-0.107-0.269-0.181-0.423-0.208c-0.733-0.129-1.013-0.527-0.746-1.147c0.114-0.265,0.116-0.467-0.002-0.753
	c-0.115-0.281,0.031-0.647,0.076-1.115c-0.228-0.244-0.303-0.632,0.035-1.069c0.063-0.081-0.133-0.292-0.128-0.44
	c0.018-0.535-0.438-0.761-0.768-1.11c-0.347-0.366-0.622-0.913-0.626-1.383c-0.014-1.865-0.81-3.447-1.939-4.967
	c-1.542-2.075-2.42-4.347-2.4-6.865c0.039-4.868,4.144-8.486,9.64-8.502c2.308-0.007,4.49,0.374,6.377,1.606
	c2.259,1.474,3.314,3.549,3.625,5.965c0.318,2.47-0.488,4.7-1.842,6.817c-0.549,0.859-1.164,1.697-1.585,2.605
	c-0.372,0.802-0.59,1.676-0.742,2.536c-0.171,0.972-0.26,1.935-1.318,2.536c-0.087,0.049-0.106,0.204-0.138,0.314
	C61.211,26.895,61.147,27.161,61.058,27.502z M56.012,15.359c0.628-3.637,3.433-5.554,6.835-7.16c0.214,0.43,0.462,0.779,0.567,1.16
	c0.753,2.724,0.206,5.237-1.598,7.547c-0.491,0.629-1.073,1.172-1.897,1.374c-0.687,0.168-1.429,0.158-2.194,0.231
	c-0.334,0.739-0.533,1.555-0.133,2.425c0.147,0.319,0.207,0.688,0.214,1.035c0.024,1.317,0.01,2.635,0.01,4.014
	c0.718,0,1.532,0.001,2.345,0c0.978-0.002,1.466-0.31,1.745-1.15c0.111-0.335,0.187-0.688,0.211-1.036
	c0.079-1.145,0.386-2.227,1.027-3.23c0.49-0.768,0.971-1.54,1.458-2.31c1.262-1.994,2.043-4.082,1.712-6.417
	c-0.305-2.153-1.233-4.016-3.184-5.384c-2.047-1.436-4.439-1.831-6.985-1.659c-4.915,0.331-8.119,3.673-8.269,7.886
	c-0.08,2.254,0.726,4.299,2.007,6.216c0.365,0.546,0.744,1.086,1.113,1.631c0.679,1.001,1.094,2.065,1.097,3.253
	c0.001,0.452,0.118,0.911,0.248,1.352c0.136,0.462,0.495,0.795,1.056,0.812c0.971,0.031,1.944,0.009,2.958,0.009
	c0-0.233-0.005-0.439,0.001-0.645c0.044-1.567,0.042-3.136,0.16-4.699c0.047-0.622-0.163-1.084-0.538-1.546
	c-1.763,0.778-2.805,0.583-4.003-0.805c-0.406-0.47-0.723-1.007-1.032-1.536c-0.668-1.143-1.127-2.351-1.38-3.692
	C51.994,13.279,54.134,13.995,56.012,15.359z M60.75,30.888c-1.891-0.376-2.696-0.24-2.962,0.393c0.808,0,1.597,0.026,2.382-0.018
	C60.372,31.251,60.557,31.018,60.75,30.888z M57.778,29.697c0.015,0.064,0.03,0.127,0.045,0.191c0.754,0,1.509,0.013,2.262-0.005
	c0.384-0.009,0.614-0.185,0.55-0.633C59.677,29.478,58.575,28.894,57.778,29.697z M57.772,28.402c0.017,0.055,0.033,0.11,0.05,0.164
	c0.788,0,1.578,0.028,2.362-0.02c0.196-0.012,0.373-0.267,0.559-0.41c-0.045-0.063-0.089-0.125-0.134-0.188
	C59.689,28.223,58.582,27.585,57.772,28.402z M60.742,26.912c-0.032-0.05-0.064-0.101-0.095-0.151
	c-1.771-0.235-2.587-0.101-2.845,0.507c0.789,0,1.563,0.025,2.333-0.016C60.344,27.24,60.54,27.03,60.742,26.912z M60.032,11.737
	c-1.31,1.421-2.557,2.88-2.167,4.894C57.91,15.917,59.342,12.653,60.032,11.737z M51.714,14.619c1.55,0.825,2.972,1.746,3.675,3.306
	c-0.166-0.857-0.303-1.666-0.891-2.151C53.806,15.203,52.607,15.008,51.714,14.619z M57.426,25.007h-0.405v-2.679h0.405V25.007z"/>
</svg>