<!-- Generator: Adobe Illustrator 25.0.0, SVG Export Plug-In  -->
<svg version="1.1" xmlns="http://www.w3.org/2000/svg" xmlns:xlink="http://www.w3.org/1999/xlink" x="0px" y="0px"
	 width="569.664px" height="50.026px" viewBox="0 0 569.664 50.026"
	 style="overflow:visible;enable-background:new 0 0 569.664 50.026;" xml:space="preserve">
<style type="text/css">
	.st0{fill:#FFFFFF;}
</style>
<defs>
</defs>
<g>
	<path class="st0" d="M32.453,6.481c0.401,0,0.696,0.243,0.696,0.575c0,0.302-0.294,0.548-0.696,0.548h-0.707
		c-0.673,0-1.329,0.34-1.612,1.329l-6.526,22.755h-2.14l-4.771-15.595l-4.941,15.595H9.594L2.744,8.924
		C2.441,7.916,1.715,7.604,1.307,7.604H0.759c-0.402,0-0.696-0.244-0.696-0.575c0-0.305,0.294-0.548,0.696-0.548H11.36
		c0.402,0,0.696,0.243,0.696,0.575c0,0.304-0.294,0.548-0.696,0.548h-0.862c-0.829,0-1.276,0.557-1.047,1.33l3.853,13.128
		l4.952-15.58h1.84l4.896,14.965l3.574-12.513c0.221-0.771-0.204-1.33-1.08-1.33h-0.755c-0.402,0-0.696-0.244-0.696-0.575
		c0-0.304,0.294-0.547,0.696-0.547L32.453,6.481L32.453,6.481z"/>
	<path class="st0" d="M54.609,30.398c0.413,0,0.713,0.24,0.713,0.547c0,0.334-0.3,0.575-0.713,0.575h-1.343v0.005h-5.653V28.63
		c-0.726,1.969-2.371,3.245-5.069,3.245c-3.492,0-6.893-2.411-6.893-8.925c0-6.494,3.374-8.908,6.856-8.908
		c2.677,0,4.377,1.23,5.106,3.272v-2.924h5.653v6.302v8.77c0,0.567,0.438,0.936,1.091,0.936L54.609,30.398L54.609,30.398z
		 M47.621,22.94c0-3.299-1.069-7.344-3.489-7.344c-1.656,0-2.609,1.807-2.609,7.354c0,5.493,0.953,7.372,2.609,7.372
		C46.552,30.322,47.621,26.217,47.621,22.94z"/>
	<path class="st0" d="M67.115,14.998c0,4.54,6.846,5.917,6.846,11.103c0,3.714-4.035,5.774-8.413,5.774
		c-4.347,0-6.988-2.361-6.988-5.453c0-1.737,1.05-2.627,2.128-2.75l3.335-6.387c0.08-1.099,0.558-2.304,1.16-3.258
		c0.638-1.024,1.373-1.713,1.988-1.713c0.696,0,0.73,0.606,0.574,0.871C67.338,13.743,67.115,14.339,67.115,14.998L67.115,14.998z
		 M68.692,27.238c0-2.764-3.246-4.628-4.333-7.652l-2.242,4.365c0.521,0.296,0.886,0.813,0.886,1.537
		c0,1.539-1.958,1.646-1.958,2.985c0,1.427,2.071,2.303,3.786,2.303C67.191,30.776,68.692,29.609,68.692,27.238z"/>
	<path class="st0" d="M95.157,30.398c0.413,0,0.714,0.24,0.714,0.547c0,0.334-0.301,0.575-0.714,0.575h-8.338
		c-0.414,0-0.713-0.241-0.713-0.575c0-0.307,0.299-0.547,0.713-0.547h0.251c0.652,0,1.091-0.369,1.091-0.936v-4.249v-8.771
		c0-0.566-0.438-0.936-1.091-0.936h-0.251c-0.413,0-0.714-0.241-0.714-0.548c0-0.334,0.301-0.575,0.714-0.575h6.997v10.829v4.248
		c0,0.567,0.438,0.936,1.091,0.936h0.251L95.157,30.398z M87.889,7.124c0-1.448,1.381-2.589,3.145-2.589
		c1.685,0,3.065,1.141,3.065,2.589c0,1.393-1.38,2.533-3.065,2.533C89.27,9.657,87.889,8.517,87.889,7.124z"/>
	<path class="st0" d="M107.693,14.998c0,4.54,6.846,5.917,6.846,11.103c0,3.714-4.035,5.774-8.413,5.774
		c-4.347,0-6.988-2.361-6.988-5.453c0-1.737,1.05-2.627,2.128-2.75l3.335-6.387c0.08-1.099,0.558-2.304,1.16-3.258
		c0.638-1.024,1.373-1.713,1.988-1.713c0.696,0,0.73,0.606,0.574,0.871C107.917,13.743,107.693,14.339,107.693,14.998
		L107.693,14.998z M109.271,27.238c0-2.764-3.246-4.628-4.333-7.652l-2.242,4.365c0.521,0.296,0.886,0.813,0.886,1.537
		c0,1.539-1.958,1.646-1.958,2.985c0,1.427,2.071,2.303,3.786,2.303C107.77,30.776,109.271,29.609,109.271,27.238z"/>
	<path class="st0" d="M129.925,27.65c0.415,0,0.613,0.263,0.613,0.511c0,1.683-1.895,3.714-5.142,3.714
		c-2.704,0-5.618-1.306-5.618-4.779V15.508h-1.357c-0.398,0-0.696-0.241-0.696-0.575c0-0.307,0.298-0.549,0.696-0.549h0.474
		c2.872,0,5.115-1.954,5.176-5.324V8.677c0-0.329,0.292-0.575,0.696-0.575c0.371,0,0.662,0.246,0.662,0.575v0.24v5.467h4.412
		c0.397,0,0.695,0.242,0.695,0.576c0,0.307-0.298,0.548-0.695,0.548h-4.412v11.588c0,2.002,0.748,2.704,2.031,2.704
		c0.884,0,1.479-0.484,1.833-1.622c0.123-0.319,0.347-0.525,0.63-0.525L129.925,27.65z"/>
	<path class="st0" d="M154.454,31.896c-7.712,0-11.286-5.47-11.286-12.876c0-8.492,4.342-12.942,11.321-12.942
		c5.746,0,8.302,2.836,8.302,6.315c0,2.275-1.575,3.212-3.074,3.212c-1.408,0-2.725-0.79-2.725-2.154
		c0-2.039,2.826-1.903,2.826-3.506c0-1.429-1.657-2.612-4.257-2.612c-3.452,0-5.819,2.594-5.819,11.688
		c0,8.211,1.971,11.102,5.635,11.102c3.077,0,4.699-1.598,5.561-3.319c0.407-0.689,0.666-0.888,1.111-0.888
		c0.307,0,0.528,0.162,0.518,0.487c-0.033,0.48-0.257,1.119-0.703,1.835C160.802,29.97,158.638,31.896,154.454,31.896
		L154.454,31.896z"/>
	<path class="st0" d="M176.036,31.865c-5.444,0-8.632-3.426-8.632-8.942c0-5.499,3.07-8.886,8.632-8.886
		c5.422,0,8.631,3.387,8.631,8.886C184.668,28.439,181.499,31.865,176.036,31.865L176.036,31.865z M176.03,30.814
		c2.028-0.011,2.8-1.834,2.8-7.892c0-6.023-0.763-7.809-2.793-7.809c-2.024,0-2.799,1.785-2.799,7.809
		C173.237,28.98,173.989,30.804,176.03,30.814L176.03,30.814z"/>
	<path class="st0" d="M219.538,6.481c0.401,0,0.696,0.243,0.696,0.575c0,0.302-0.294,0.548-0.696,0.548h-0.707
		c-0.673,0-1.329,0.34-1.612,1.329l-6.526,22.755h-2.14l-4.771-15.595l-4.941,15.595h-2.163l-6.85-22.765
		c-0.303-1.008-1.029-1.319-1.438-1.319h-0.547c-0.402,0-0.696-0.244-0.696-0.575c0-0.305,0.294-0.548,0.696-0.548h10.601
		c0.402,0,0.696,0.243,0.696,0.575c0,0.304-0.294,0.548-0.696,0.548h-0.862c-0.829,0-1.276,0.557-1.047,1.33l3.853,13.128
		l4.952-15.58h1.84l4.896,14.965l3.574-12.513c0.221-0.771-0.204-1.33-1.08-1.33h-0.755c-0.402,0-0.696-0.244-0.696-0.575
		c0-0.304,0.294-0.547,0.696-0.547L219.538,6.481L219.538,6.481z"/>
	<path class="st0" d="M231.367,31.865c-5.444,0-8.632-3.426-8.632-8.942c0-5.499,3.07-8.886,8.632-8.886
		c5.422,0,8.631,3.387,8.631,8.886C239.999,28.439,236.83,31.865,231.367,31.865L231.367,31.865z M231.361,30.814
		c2.028-0.011,2.8-1.834,2.8-7.892c0-6.023-0.763-7.809-2.793-7.809c-2.024,0-2.799,1.785-2.799,7.809
		C228.568,28.98,229.32,30.804,231.361,30.814L231.361,30.814z"/>
	<path class="st0" d="M256.094,14.058c3.129,0,4.723,1.909,4.723,4.46c0,1.89-1.437,3.765-3.849,3.765
		c-1.573,0-2.671-1.014-2.671-2.245c0-1.894,2.401-2.014,2.401-3.19c0-0.656-0.601-1.167-1.742-1.167
		c-2.219,0-3.698,2.351-3.698,7.021v2.513v4.249c0,0.566,0.438,0.936,1.091,0.936h1.431c0.398,0,0.696,0.24,0.696,0.574
		c0,0.307-0.298,0.548-0.696,0.548h-9.518c-0.414,0-0.713-0.241-0.713-0.575c0-0.307,0.299-0.547,0.713-0.547h0.251
		c0.652,0,1.09-0.369,1.09-0.936v-4.249v-8.771c0-0.566-0.438-0.936-1.091-0.936h-0.251c-0.413,0-0.714-0.241-0.714-0.548
		c0-0.334,0.301-0.575,0.714-0.575h6.332v4.011C251.59,15.158,253.659,14.058,256.094,14.058L256.094,14.058z"/>
	<path class="st0" d="M273.056,30.397c0.413,0,0.714,0.241,0.714,0.548c0,0.334-0.301,0.574-0.714,0.574h-8.205
		c-0.414,0-0.713-0.24-0.713-0.574c0-0.307,0.299-0.548,0.713-0.548h0.251c0.652,0,1.091-0.369,1.091-0.936V5.88
		c0-0.566-0.438-0.935-1.091-0.935h-0.251c-0.413,0-0.714-0.241-0.714-0.548c0-0.334,0.301-0.575,0.714-0.575h6.996v25.502
		c0,0.721,0.324,1.073,0.958,1.073H273.056L273.056,30.397z M284.003,30.397c0.398,0,0.696,0.241,0.696,0.575
		c0,0.307-0.298,0.547-0.696,0.547h-8.548c-0.397,0-0.695-0.24-0.695-0.574c0-0.307,0.298-0.548,0.696-0.548h0.298
		c0.884,0,0.951-0.608,0.558-1.204l-4.128-6.221l6.932-6.337c0.49-0.44,0.202-1.128-0.576-1.128h-1.109
		c-0.398,0-0.696-0.241-0.696-0.575c0-0.307,0.298-0.549,0.696-0.549h6.35c0.398,0,0.696,0.242,0.696,0.576
		c0,0.307-0.298,0.548-0.696,0.548h-0.209c-1.127,0-1.511,0.262-2.448,1.101l-4.505,4.036l5.751,8.879
		c0.378,0.582,0.787,0.874,1.41,0.874H284.003L284.003,30.397z"/>
	<path class="st0" d="M296.396,30.398c0.413,0,0.714,0.24,0.714,0.547c0,0.334-0.301,0.575-0.714,0.575h-8.338
		c-0.414,0-0.713-0.241-0.713-0.575c0-0.307,0.299-0.547,0.713-0.547h0.251c0.652,0,1.091-0.369,1.091-0.936v-4.249v-8.771
		c0-0.566-0.438-0.936-1.091-0.936h-0.251c-0.413,0-0.714-0.241-0.714-0.548c0-0.334,0.301-0.575,0.714-0.575h6.997v10.829v4.248
		c0,0.567,0.438,0.936,1.091,0.936h0.251L296.396,30.398z M289.128,7.124c0-1.448,1.381-2.589,3.145-2.589
		c1.685,0,3.065,1.141,3.065,2.589c0,1.393-1.38,2.533-3.065,2.533C290.509,9.657,289.128,8.517,289.128,7.124z"/>
	<path class="st0" d="M320.104,30.398c0.413,0,0.714,0.24,0.714,0.547c0,0.334-0.301,0.575-0.714,0.575h-8.205
		c-0.414,0-0.713-0.241-0.713-0.575c0-0.307,0.299-0.547,0.713-0.547h0.251c0.632,0,0.958-0.353,0.958-1.073V18.343
		c0-1.535-0.66-2.208-1.845-2.208c-1.641,0-3.295,1.81-3.295,5.611v7.579c0,0.721,0.324,1.073,0.958,1.073h0.251
		c0.413,0,0.714,0.24,0.714,0.547c0,0.334-0.301,0.575-0.714,0.575h-8.205c-0.414,0-0.713-0.241-0.713-0.575
		c0-0.307,0.299-0.547,0.713-0.547h0.251c0.652,0,1.091-0.369,1.091-0.936v-13.02c0-0.566-0.438-0.936-1.091-0.936h-0.251
		c-0.413,0-0.714-0.241-0.714-0.548c0-0.334,0.301-0.575,0.714-0.575h6.663v3.362c1.05-2.391,3.141-3.712,5.89-3.712
		c3.057,0,5.238,1.482,5.238,4.397v11.029c0,0.567,0.438,0.936,1.091,0.936L320.104,30.398L320.104,30.398z"/>
	<path class="st0" d="M341.679,31.525v2.828c0,5.384-4.06,7.818-9.649,7.818c-4.838,0-7.602-2.078-7.602-5.4
		c0-1.993,1.321-3.047,2.858-3.047c1.293,0,2.37,0.689,2.37,2c0,1.755-2.126,1.634-2.126,2.916c0,1.123,1.184,2.397,4.075,2.397
		c3.451,0,4.42-2.281,4.42-5.963v-6.44c-0.727,1.966-2.371,3.24-5.068,3.24c-3.492,0-6.893-2.411-6.893-8.925
		c0-6.494,3.374-8.908,6.856-8.908c2.677,0,4.376,1.23,5.105,3.272v-2.924h5.653L341.679,31.525z M336.033,22.938
		c0-3.299-1.068-7.344-3.489-7.344c-1.656,0-2.609,1.807-2.609,7.354c0,5.492,0.954,7.371,2.609,7.371
		C334.965,30.32,336.033,26.216,336.033,22.938z"/>
	<path class="st0" d="M375.158,30.398c0.413,0,0.714,0.241,0.714,0.548c0,0.334-0.301,0.574-0.714,0.574h-6.997v-2.72
		c-1.127,1.97-3.073,3.048-5.556,3.048c-3.057,0-5.238-1.479-5.238-4.396v-2.238v-8.77c0-0.566-0.438-0.936-1.091-0.936h-0.251
		c-0.413,0-0.714-0.241-0.714-0.548c0-0.334,0.301-0.575,0.714-0.575h6.997v6.731v6.424c0,1.536,0.661,2.209,1.846,2.209
		c1.617,0,3.247-1.757,3.294-5.444v-3.613v-4.249c0-0.566-0.438-0.936-1.091-0.936h-0.251c-0.413,0-0.714-0.241-0.714-0.548
		c0-0.334,0.301-0.575,0.714-0.575h6.997v10.828v4.249c0,0.566,0.438,0.936,1.091,0.936h0.251L375.158,30.398z M359.438,7.574
		c0-1.196,1.13-2.131,2.577-2.131c1.381,0,2.511,0.935,2.511,2.131c0,1.141-1.13,2.075-2.511,2.075
		C360.568,9.649,359.438,8.715,359.438,7.574z M366.668,7.574c0-1.196,1.164-2.131,2.577-2.131c1.38,0,2.51,0.935,2.51,2.131
		c0,1.141-1.13,2.075-2.51,2.075C367.832,9.649,366.668,8.715,366.668,7.574z"/>
	<path class="st0" d="M391.805,14.029c3.492,0,6.893,2.412,6.893,8.926c0,6.493-3.374,8.908-6.856,8.908
		c-2.678,0-4.377-1.231-5.106-3.273v2.925h-3.868v0.005h-3.129c-0.414,0-0.713-0.24-0.713-0.574c0-0.307,0.299-0.548,0.713-0.548
		h0.251c0.652,0,1.091-0.369,1.091-0.936v-8.771V14.65V5.88c0-0.566-0.438-0.935-1.091-0.935h-0.251
		c-0.413,0-0.714-0.241-0.714-0.548c0-0.334,0.301-0.575,0.714-0.575h6.997V14.65v2.624
		C387.461,15.307,389.106,14.03,391.805,14.029L391.805,14.029z M392.826,22.955c0-5.493-0.953-7.372-2.609-7.372
		c-2.42,0-3.489,4.105-3.489,7.382c0,3.3,1.069,7.345,3.489,7.345C391.873,30.31,392.826,28.503,392.826,22.955z"/>
	<path class="st0" d="M419.058,21.917c0,0.656-0.327,1.013-1.125,1.013h-9.737c0,5.086,0.729,7.551,4.073,7.551
		c2.879,0,4.523-2.359,5.223-4.231c0.169-0.428,0.438-0.512,0.704-0.512c0.438,0,0.561,0.277,0.554,0.536
		c-0.063,1.434-1.785,5.603-7.414,5.603c-5.315,0-8.961-3.363-8.961-8.952c0-5.483,3.391-8.887,8.669-8.887
		C416.325,14.037,419.057,16.962,419.058,21.917L419.058,21.917z M413.589,21.89c-0.011-5.146-0.626-6.802-2.553-6.802
		c-1.91,0-2.735,1.849-2.831,6.802H413.589z"/>
	<path class="st0" d="M435.137,14.058c3.129,0,4.723,1.909,4.723,4.46c0,1.89-1.437,3.765-3.849,3.765
		c-1.573,0-2.671-1.014-2.671-2.245c0-1.894,2.401-2.014,2.401-3.19c0-0.656-0.601-1.167-1.742-1.167
		c-2.219,0-3.698,2.351-3.698,7.021v2.513v4.249c0,0.566,0.438,0.936,1.091,0.936h1.431c0.398,0,0.696,0.24,0.696,0.574
		c0,0.307-0.298,0.548-0.696,0.548h-9.518c-0.414,0-0.713-0.241-0.713-0.575c0-0.307,0.299-0.547,0.713-0.547h0.251
		c0.652,0,1.09-0.369,1.09-0.936v-4.249v-8.771c0-0.566-0.438-0.936-1.091-0.936h-0.251c-0.413,0-0.714-0.241-0.714-0.548
		c0-0.334,0.301-0.575,0.714-0.575h6.332v4.011C430.633,15.158,432.702,14.058,435.137,14.058L435.137,14.058z"/>
	<path class="st0" d="M463.024,30.397c0.413,0,0.714,0.241,0.714,0.548c0,0.334-0.301,0.574-0.714,0.574h-8.205
		c-0.414,0-0.713-0.24-0.713-0.574c0-0.307,0.299-0.548,0.713-0.548h0.251c0.632,0,0.958-0.353,0.958-1.073V18.342
		c0-1.535-0.661-2.208-1.846-2.208c-1.641,0-3.295,1.81-3.295,5.612v7.578c0,0.721,0.324,1.073,0.958,1.073h0.251
		c0.413,0,0.714,0.241,0.714,0.548c0,0.334-0.301,0.574-0.714,0.574h-8.205c-0.414,0-0.713-0.24-0.713-0.574
		c0-0.307,0.299-0.548,0.713-0.548h0.251c0.652,0,1.091-0.369,1.091-0.936V14.65V5.88c0-0.566-0.438-0.935-1.091-0.935h-0.251
		c-0.413,0-0.714-0.241-0.714-0.548c0-0.334,0.301-0.575,0.714-0.575h6.997v13.263c1.127-1.971,3.073-3.05,5.557-3.05
		c3.057,0,5.238,1.482,5.238,4.397v11.029c0,0.567,0.438,0.936,1.091,0.936h0.251H463.024z"/>
	<path class="st0" d="M485.947,30.398c0.413,0,0.713,0.24,0.713,0.547c0,0.334-0.3,0.575-0.713,0.575h-1.343v0.005h-5.653V28.63
		c-0.726,1.969-2.371,3.245-5.069,3.245c-3.492,0-6.893-2.411-6.893-8.925c0-6.494,3.374-8.908,6.856-8.908
		c2.677,0,4.377,1.23,5.106,3.272v-2.924h5.653v6.302v8.77c0,0.567,0.438,0.936,1.091,0.936L485.947,30.398L485.947,30.398z
		 M478.958,22.94c0-3.299-1.069-7.344-3.489-7.344c-1.656,0-2.609,1.807-2.609,7.354c0,5.493,0.953,7.372,2.609,7.372
		C477.89,30.322,478.958,26.217,478.958,22.94z"/>
	<path class="st0" d="M509.624,30.398c0.413,0,0.714,0.241,0.714,0.548c0,0.334-0.301,0.575-0.714,0.575h-6.997v-2.721
		c-1.127,1.97-3.073,3.048-5.555,3.048c-3.057,0-5.238-1.479-5.238-4.396v-2.237v-8.771c0-0.566-0.438-0.936-1.091-0.936h-0.251
		c-0.413,0-0.714-0.241-0.714-0.548c0-0.334,0.301-0.575,0.714-0.575h6.997v6.731v6.425c0,1.535,0.661,2.208,1.846,2.208
		c1.616,0,3.246-1.756,3.294-5.44v-3.617v-4.249c0-0.566-0.438-0.936-1.091-0.936h-0.251c-0.413,0-0.714-0.241-0.714-0.548
		c0-0.334,0.301-0.575,0.714-0.575h6.997v10.829v4.248c0,0.567,0.438,0.936,1.091,0.936h0.251L509.624,30.398z"/>
	<path class="st0" d="M526.309,14.042c3.482,0,6.856,2.414,6.856,8.908c0,6.514-3.401,8.926-6.893,8.926
		c-2.699,0-4.343-1.277-5.069-3.245v2.358v8.77c0,0.567,0.439,0.936,1.091,0.936h0.251c0.414,0,0.713,0.241,0.713,0.548
		c0,0.334-0.299,0.575-0.713,0.575h-6.997V30.989v-5.775v-8.77c0-0.566-0.438-0.936-1.09-0.936h-0.251
		c-0.414,0-0.713-0.241-0.713-0.548c0-0.334,0.299-0.575,0.713-0.575h3.129v0.005h3.867v2.924
		C521.931,15.272,523.63,14.042,526.309,14.042L526.309,14.042z M527.293,22.95c0-5.547-0.953-7.354-2.609-7.354
		c-2.42,0-3.489,4.045-3.489,7.344c0,3.276,1.069,7.382,3.489,7.382C526.34,30.322,527.293,28.443,527.293,22.95z"/>
	<path class="st0" d="M548.902,27.65c0.415,0,0.613,0.263,0.613,0.511c0,1.683-1.895,3.714-5.142,3.714
		c-2.704,0-5.618-1.306-5.618-4.779V15.508h-1.357c-0.398,0-0.696-0.241-0.696-0.575c0-0.307,0.298-0.549,0.696-0.549h0.474
		c2.872,0,5.115-1.954,5.176-5.324V8.677c0-0.329,0.292-0.575,0.696-0.575c0.371,0,0.662,0.246,0.662,0.575v0.24v5.467h4.412
		c0.397,0,0.695,0.242,0.695,0.576c0,0.307-0.298,0.548-0.695,0.548h-4.412v11.588c0,2.002,0.748,2.704,2.031,2.704
		c0.884,0,1.479-0.484,1.833-1.622c0.123-0.319,0.347-0.525,0.63-0.525L548.902,27.65z"/>
	<path class="st0" d="M554.493,7.406c0,1.421,2.64,1.109,2.64,3.033c0,1.25-1.148,2.019-2.384,2.019c-1.448,0-3.02-0.998-3.02-2.983
		c0-4.046,3.426-6.08,7.696-6.08c4.292,0,7.918,1.916,7.918,5.832c0,6.306-8.087,7.976-8.087,15.017v2.244
		c0,0.391-0.394,0.686-0.866,0.686c-0.509,0-0.902-0.295-0.902-0.686v-3.564c0-5.789,4.253-9.042,4.253-14.153
		c0-3.016-1.443-4.022-3.642-4.022C556.028,4.747,554.493,6.143,554.493,7.406z M558.618,31.5c1.447,0,2.631,0.979,2.631,2.19
		c0,1.196-1.185,2.201-2.631,2.201c-1.466,0-2.681-1.005-2.681-2.201C555.937,32.479,557.152,31.5,558.618,31.5z"/>
</g>
</svg>