<!-- Generator: Adobe Illustrator 25.0.0, SVG Export Plug-In  -->
<svg version="1.1" xmlns="http://www.w3.org/2000/svg" xmlns:xlink="http://www.w3.org/1999/xlink" x="0px" y="0px"
	 width="1736.895px" height="249.843px" viewBox="0 0 1736.895 249.843"
	 style="overflow:visible;enable-background:new 0 0 1736.895 249.843;" xml:space="preserve">
<style type="text/css">
	.st0{fill:none;}
	.st1{fill:#FFFFFF;}
</style>
<defs>
</defs>
<g>
	<rect y="17.877" class="st0" width="1736.895" height="231.966"/>
	<path class="st1" d="M70.952,149.293c-36.096,0-52.823-25.606-52.823-60.276c0-39.752,20.321-60.581,52.984-60.581
		c26.895,0,38.854,13.275,38.854,29.56c0,10.652-7.37,15.038-14.384,15.038c-6.588,0-12.755-3.698-12.755-10.086
		c0-9.546,13.225-8.907,13.225-16.409c0-6.691-7.757-12.231-19.925-12.231c-16.154,0-27.236,12.144-27.236,54.712
		c0,38.438,9.224,51.97,26.376,51.97c14.399,0,21.99-7.479,26.025-15.541c1.908-3.227,3.119-4.153,5.203-4.153
		c1.435,0,2.47,0.756,2.422,2.278c-0.155,2.252-1.205,5.242-3.289,8.589c-4.967,8.116-15.094,17.137-34.675,17.137L70.952,149.293z"
		/>
	<path class="st1" d="M171.971,149.15c-25.481,0-40.401-16.037-40.401-41.858c0-25.743,14.371-41.599,40.403-41.599
		c25.376,0,40.396,15.855,40.396,41.599c0,25.821-14.832,41.858-40.396,41.858H171.971z M171.942,144.23
		c9.493-0.05,13.104-8.585,13.104-36.938c0-28.197-3.571-36.554-13.074-36.554c-9.473,0-13.102,8.356-13.102,36.554
		c0,28.354,3.519,36.889,13.07,36.938H171.942z"/>
	<path class="st1" d="M375.574,30.324c1.88,0,3.257,1.139,3.257,2.693c0,1.415-1.377,2.564-3.257,2.564h-3.306
		c-3.151,0-6.219,1.594-7.543,6.225l-30.545,106.519h-10.015l-22.328-73.001l-23.126,73.001h-10.125L236.529,41.759
		c-1.419-4.717-4.816-6.175-6.729-6.175h-2.562c-1.88,0-3.257-1.144-3.257-2.693c0-1.425,1.376-2.562,3.257-2.562h49.613
		c1.88,0,3.257,1.138,3.257,2.692c0,1.421-1.377,2.564-3.257,2.564h-4.033c-3.88,0-5.973,2.606-4.902,6.226l18.035,61.451
		l23.175-72.932h8.613l22.917,70.052l16.729-58.571c1.035-3.607-0.955-6.226-5.055-6.226h-3.534c-1.88,0-3.256-1.144-3.256-2.692
		c0-1.425,1.376-2.562,3.256-2.562h26.776L375.574,30.324z"/>
	<path class="st1" d="M430.952,149.15c-25.481,0-40.401-16.037-40.401-41.858c0-25.743,14.371-41.599,40.403-41.599
		c25.376,0,40.396,15.855,40.396,41.599c0,25.821-14.832,41.858-40.396,41.858H430.952z M430.924,144.23
		c9.493-0.05,13.104-8.585,13.104-36.938c0-28.197-3.571-36.554-13.074-36.554c-9.473,0-13.102,8.356-13.102,36.554
		c0,28.354,3.519,36.889,13.07,36.938H430.924z"/>
	<path class="st1" d="M546.687,65.793c14.645,0,22.104,8.936,22.104,20.876c0,8.844-6.724,17.62-18.013,17.62
		c-7.361,0-12.5-4.741-12.5-10.506c0-8.866,11.237-9.43,11.237-14.935c0-3.073-2.811-5.465-8.154-5.465
		c-10.383,0-17.31,11.002-17.31,32.869v11.762v19.89c0,2.652,2.048,4.379,5.106,4.379h6.699c1.863,0,3.256,1.128,3.256,2.691
		c0,1.435-1.394,2.562-3.256,2.562h-44.546c-1.938,0-3.338-1.128-3.338-2.691c0-1.435,1.4-2.562,3.338-2.562h1.177
		c3.052,0,5.104-1.727,5.104-4.379v-19.89V76.96c0-2.651-2.047-4.379-5.106-4.379h-1.176c-1.934,0-3.341-1.129-3.341-2.564
		c0-1.563,1.407-2.692,3.341-2.692h29.632v18.774c4.666-15.157,14.35-20.308,25.75-20.308L546.687,65.793z"/>
	<path class="st1" d="M626.079,142.279c1.934,0,3.341,1.128,3.341,2.563c0,1.563-1.407,2.69-3.341,2.69h-38.4
		c-1.938,0-3.338-1.127-3.338-2.69c0-1.436,1.4-2.563,3.338-2.563h1.176c3.053,0,5.107-1.727,5.107-4.379V27.513
		c0-2.652-2.048-4.379-5.107-4.379h-1.176c-1.934,0-3.341-1.13-3.341-2.564c0-1.563,1.407-2.691,3.341-2.691h32.741v119.379
		c0,3.374,1.519,5.024,4.485,5.024h1.177L626.079,142.279z M677.319,142.279c1.861,0,3.255,1.128,3.255,2.691
		c0,1.436-1.394,2.562-3.257,2.562H637.31c-1.861,0-3.255-1.127-3.255-2.69c0-1.436,1.394-2.563,3.257-2.563h1.394
		c4.138,0,4.448-2.849,2.609-5.636l-19.323-29.12l32.444-29.665c2.291-2.062,0.944-5.28-2.695-5.28h-5.19
		c-1.863,0-3.257-1.13-3.257-2.693c0-1.436,1.394-2.564,3.257-2.564h29.721c1.863,0,3.257,1.129,3.257,2.692
		c0,1.436-1.394,2.565-3.257,2.565h-0.981c-5.274,0-7.07,1.227-11.458,5.152l-21.084,18.894l26.92,41.565
		c1.77,2.725,3.68,4.09,6.597,4.09h1.05H677.319z"/>
	<path class="st1" d="M735.324,142.283c1.934,0,3.341,1.128,3.341,2.562c0,1.563-1.407,2.691-3.341,2.691H696.3
		c-1.938,0-3.338-1.128-3.338-2.691c0-1.435,1.4-2.562,3.338-2.562h1.177c3.052,0,5.106-1.727,5.106-4.379v-19.89V76.96
		c0-2.651-2.048-4.379-5.106-4.379H696.3c-1.934,0-3.341-1.129-3.341-2.564c0-1.563,1.407-2.692,3.341-2.692h32.747v50.688v19.89
		c0,2.652,2.048,4.379,5.107,4.379h1.176L735.324,142.283z M701.31,33.332c0-6.776,6.461-12.117,14.717-12.117
		c7.884,0,14.345,5.341,14.345,12.117c0,6.521-6.461,11.861-14.345,11.861C707.771,45.193,701.31,39.853,701.31,33.332z"/>
	<path class="st1" d="M846.289,142.283c1.935,0,3.341,1.128,3.341,2.562c0,1.563-1.406,2.691-3.341,2.691H807.89
		c-1.938,0-3.339-1.128-3.339-2.691c0-1.435,1.4-2.562,3.339-2.562h1.176c2.96,0,4.483-1.65,4.483-5.024V85.85
		c0-7.188-3.091-10.337-8.637-10.337c-7.682,0-15.425,8.473-15.425,26.271v35.476c0,3.374,1.519,5.024,4.484,5.024h1.177
		c1.934,0,3.341,1.128,3.341,2.562c0,1.563-1.407,2.691-3.341,2.691h-38.4c-1.938,0-3.338-1.128-3.338-2.691
		c0-1.435,1.4-2.562,3.338-2.562h1.176c3.053,0,5.107-1.727,5.107-4.379V76.96c0-2.651-2.048-4.379-5.107-4.379h-1.176
		c-1.934,0-3.341-1.129-3.341-2.564c0-1.563,1.407-2.692,3.341-2.692h31.183v15.738c4.914-11.189,14.699-17.375,27.566-17.375
		c14.305,0,24.514,6.94,24.514,20.582v51.633c0,2.652,2.048,4.379,5.106,4.379h1.177L846.289,142.283z"/>
	<path class="st1" d="M947.276,147.559v13.239c0,25.202-19,36.598-45.159,36.598c-22.644,0-35.58-9.726-35.58-25.278
		c0-9.331,6.182-14.265,13.379-14.265c6.054,0,11.093,3.231,11.093,9.364c0,8.217-9.95,7.648-9.95,13.652
		c0,5.256,5.539,11.223,19.071,11.223c16.149,0,20.688-10.679,20.688-27.916v-30.146c-3.401,9.2-11.098,15.169-23.72,15.169
		c-16.344,0-32.261-11.29-32.261-41.78c0-30.399,15.79-41.7,32.089-41.7c12.529,0,20.484,5.761,23.896,15.32V67.349h26.458
		L947.276,147.559z M920.852,107.364c0-15.442-5.001-34.378-16.328-34.378c-7.75,0-12.214,8.458-12.214,34.427
		c0,25.712,4.464,34.507,12.214,34.507C915.851,141.92,920.852,122.705,920.852,107.364z"/>
	<path class="st1" d="M1055.499,149.198c-26.78,0-40.807-11.326-40.807-27.205c0-7.991,5.487-13.57,13.246-13.57
		c5.502,0,11.374,3.303,11.374,9.204c0,8.502-11.592,7.675-11.592,14.385c0,7.262,13.076,11.831,25.854,11.831
		c15.16,0,26.621-7.126,26.621-20.238c0-29.109-64.916-19.156-64.916-62.774c0-16.396,16.559-32.291,47.084-32.291
		c21.03,0,38.202,9.772,38.202,27.104c0,8.528-5.543,13.591-13.104,13.591c-5.707,0-10.734-2.83-10.734-8.786
		c0-8.114,10.921-8.433,10.921-14.743c0-6.182-11.778-11.683-23.409-11.683c-16.757,0-27.68,5.911-27.68,19.489
		c0,26.856,67.733,20.026,67.733,61.681c0,16.59-14.061,34.008-48.794,34.008V149.198z"/>
	<path class="st1" d="M1183.794,65.72c16.299,0,32.09,11.301,32.09,41.7c0,30.49-15.918,41.78-32.262,41.78
		c-12.631,0-20.329-5.978-23.726-15.19v11.039v41.055c0,2.651,2.054,4.379,5.106,4.379h1.177c1.938,0,3.338,1.129,3.338,2.564
		c0,1.563-1.4,2.693-3.338,2.693h-32.747v-50.689v-27.034V76.962c0-2.651-2.053-4.379-5.104-4.379h-1.177
		c-1.938,0-3.339-1.129-3.339-2.564c0-1.563,1.4-2.693,3.339-2.693h14.645v0.025h18.099v13.688
		c3.411-9.56,11.366-15.32,23.897-15.32L1183.794,65.72z M1188.402,107.42c0-25.969-4.462-34.426-12.212-34.426
		c-11.327,0-16.328,18.935-16.328,34.378c0,15.34,5.001,34.556,16.328,34.556C1183.94,141.928,1188.402,133.133,1188.402,107.42z"/>
	<path class="st1" d="M1321.826,142.283c1.934,0,3.341,1.128,3.341,2.562c0,1.563-1.407,2.691-3.341,2.691h-6.283v0.024h-26.458
		v-13.554c-3.396,9.213-11.095,15.19-23.726,15.19c-16.344,0-32.261-11.29-32.261-41.78c0-30.399,15.79-41.7,32.089-41.7
		c12.529,0,20.484,5.761,23.896,15.32V67.349h26.458v29.499v41.055c0,2.652,2.048,4.379,5.106,4.379h1.177L1321.826,142.283z
		 M1289.12,107.372c0-15.443-5.002-34.378-16.329-34.378c-7.75,0-12.211,8.457-12.211,34.426c0,25.713,4.461,34.508,12.211,34.508
		C1284.118,141.928,1289.12,122.712,1289.12,107.372z"/>
	<path class="st1" d="M1386.849,71.048c-10.637,0-19.105,5.357-19.105,35.371c0,27.83,7.058,36.226,19.146,36.226
		c13.926,0,18.435-11.283,20.082-19.915c0.286-1.59,1.511-2.41,3.153-2.41c1.765,0,2.814,1.071,2.784,2.475
		c-0.581,7.651-5.019,26.406-31.242,26.406c-23.618,0-41.232-14.15-41.232-42.781c0-24.863,16.473-40.726,41.749-40.726
		c21.947,0,30.325,11.037,30.325,21.673c0,7.694-4.663,12.721-10.817,12.721c-4.709,0-8.54-2.813-8.54-7.002
		c0-7.022,9.385-6.079,9.385-12.201c0-5.839-6.816-9.837-15.685-9.837L1386.849,71.048z"/>
	<path class="st1" d="M1508.642,102.582c0,3.073-1.529,4.742-5.269,4.742h-45.571c0,23.808,3.409,35.345,19.064,35.345
		c13.477,0,21.168-11.047,24.446-19.81c0.79-2.003,2.046-2.396,3.296-2.396c2.048,0,2.622,1.3,2.592,2.513
		c-0.297,6.709-8.353,26.224-34.698,26.224c-24.877,0-41.943-15.742-41.943-41.906c0-25.667,15.873-41.601,40.573-41.601
		c24.718,0,37.505,13.694,37.505,36.889H1508.642z M1483.045,102.456c-0.054-24.095-2.93-31.844-11.949-31.844
		c-8.939,0-12.801,8.654-13.248,31.842L1483.045,102.456z"/>
	<path class="st1" d="M1609.494,142.283c1.934,0,3.341,1.128,3.341,2.562c0,1.563-1.407,2.691-3.341,2.691h-39.024
		c-1.938,0-3.338-1.128-3.338-2.691c0-1.435,1.4-2.562,3.338-2.562h1.177c3.053,0,5.106-1.727,5.106-4.379v-19.89V76.96
		c0-2.651-2.047-4.379-5.106-4.379h-1.177c-1.934,0-3.34-1.129-3.34-2.564c0-1.563,1.406-2.692,3.34-2.692h32.748v50.688v19.89
		c0,2.652,2.048,4.379,5.106,4.379h1.177L1609.494,142.283z M1575.479,33.332c0-6.776,6.462-12.117,14.718-12.117
		c7.884,0,14.346,5.341,14.346,12.117c0,6.521-6.462,11.861-14.346,11.861C1581.941,45.193,1575.479,39.853,1575.479,33.332z"/>
	<path class="st1" d="M1720.458,142.283c1.934,0,3.341,1.128,3.341,2.562c0,1.563-1.407,2.691-3.341,2.691h-38.4
		c-1.938,0-3.338-1.128-3.338-2.691c0-1.435,1.399-2.562,3.338-2.562h1.177c2.96,0,4.482-1.65,4.482-5.024V85.85
		c0-7.188-3.091-10.337-8.636-10.337c-7.682,0-15.426,8.473-15.426,26.271v35.476c0,3.374,1.519,5.024,4.485,5.024h1.177
		c1.934,0,3.34,1.128,3.34,2.562c0,1.563-1.406,2.691-3.34,2.691h-38.4c-1.938,0-3.339-1.128-3.339-2.691
		c0-1.435,1.4-2.562,3.339-2.562h1.177c3.052,0,5.106-1.727,5.106-4.379V76.96c0-2.651-2.048-4.379-5.106-4.379h-1.177
		c-1.934,0-3.341-1.129-3.341-2.564c0-1.563,1.407-2.692,3.341-2.692h31.184v15.738c4.913-11.189,14.698-17.375,27.565-17.375
		c14.304,0,24.513,6.94,24.513,20.582v51.633c0,2.652,2.048,4.379,5.106,4.379h1.177L1720.458,142.283z"/>
</g>
</svg>